<?xml version="1.0" encoding="UTF-8"?>
<!DOCTYPE svg PUBLIC "-//W3C//DTD SVG 1.1//EN" "http://www.w3.org/Graphics/SVG/1.1/DTD/svg11.dtd">
<!-- Creator: CorelDRAW -->
<svg xmlns="http://www.w3.org/2000/svg" xml:space="preserve" width="240px" height="169px" style="shape-rendering:geometricPrecision; text-rendering:geometricPrecision; image-rendering:optimizeQuality; fill-rule:evenodd; clip-rule:evenodd"
viewBox="0 0 239.999 168.716"
 xmlns:xlink="http://www.w3.org/1999/xlink">
 <defs>
  <style type="text/css">
   <![CDATA[
    .str0 {stroke:#FEFEFE;stroke-width:1.29998}
    .fil7 {fill:none}
    .fil0 {fill:#30315E}
    .fil2 {fill:#422E5A}
    .fil5 {fill:#613C82}
    .fil3 {fill:#CDBADA}
    .fil1 {fill:#FEFEFE;fill-rule:nonzero}
    .fil6 {fill:#6A448A;fill-opacity:0.701961}
    .fil4 {fill:#694788;fill-opacity:0.831373}
   ]]>
  </style>
    <clipPath id="id0">
     <path d="M120 7.08358c32.2852,0 58.4574,26.172 58.4574,58.4572 0,32.285 -26.1722,58.4569 -58.4574,58.4569 -32.2855,0 -58.4577,-26.172 -58.4577,-58.4569 0,-32.2852 26.1722,-58.4572 58.4577,-58.4572z"/>
    </clipPath>
 </defs>
 <g id="Camada_x0020_1">
  <metadata id="CorelCorpID_0Corel-Layer"/>
  <g id="_169609960">
   <rect id="_169610248" class="fil0" y="126.24" width="239.999" height="42.4766"/>
   <path id="_169610488" class="fil1" d="M30.7489 150.612c0.0566791,0.200457 0.113358,0.400913 0.165357,0.60111 0.0519992,0.200457 0.0993184,0.405853 0.146378,0.61619 0.0948984,-0.210337 0.189277,-0.415733 0.283655,-0.61619 0.0946385,-0.200197 0.198637,-0.400653 0.311995,-0.60111l7.99851 -13.5414c0.160677,-0.200197 0.302635,-0.330455 0.425613,-0.390514 0.122718,-0.060319 0.302375,-0.0902185 0.538711,-0.0902185l1.97129 0 -2.51 21.5367 -2.31188 0 1.84363 -15.9159c0.0285995,-0.200457 0.0662989,-0.420933 0.108678,-0.661169 0.0428993,-0.240496 0.0852786,-0.486192 0.132598,-0.736568l-7.91349 13.5263c-0.245696,0.430813 -0.58603,0.646349 -1.021,0.646349l-0.382974 0c-0.207737,0 -0.387654,-0.0551191 -0.543391,-0.165357 -0.155997,-0.110238 -0.269616,-0.270656 -0.335915,-0.480992l-4.90664 -13.5414c-0.00961984,0.250636 -0.0189797,0.491132 -0.0283395,0.721488 -0.00935985,0.230356 -0.0236596,0.445893 -0.0426393,0.646349l-1.82933 15.9609 -2.33996 0 2.49596 -21.5367 1.95699 0c0.236336,0 0.406633,0.0298995 0.510632,0.0951584 0.103998,0.0649989 0.222036,0.195257 0.354374,0.385574l4.9212 13.5414zm16.198 12.0534c-0.103998,0.210597 -0.222296,0.365814 -0.359054,0.465912 -0.137278,0.100358 -0.312255,0.150278 -0.520252,0.150278l-1.85767 0 3.11995 -6.0566 -3.72964 -14.3229 2.08439 0c0.207997,0 0.359574,0.0501792 0.453953,0.155217 0.0946385,0.105298 0.165617,0.240496 0.212677,0.400913l2.31188 9.58864c0.0470592,0.210337 0.0847586,0.420673 0.113358,0.63127 0.0283395,0.210337 0.0519992,0.420673 0.0707188,0.63101 0.0756588,-0.210337 0.160677,-0.425613 0.250636,-0.64115 0.0896985,-0.215536 0.179397,-0.425873 0.274296,-0.63621l4.53797 -9.60372c0.0756588,-0.160157 0.184337,-0.290415 0.321355,-0.385574 0.137278,-0.0954184 0.274036,-0.140398 0.415993,-0.140398l1.99963 0 -9.70018 19.7633zm19.7859 -7.27416c-0.491652,0.571211 -0.959644,1.04726 -1.40398,1.4279 -0.444333,0.380634 -0.888665,0.681189 -1.333,0.906865 -0.444333,0.225416 -0.902965,0.385574 -1.38032,0.475792 -0.477352,0.0902185 -0.992664,0.135198 -1.54099,0.135198 -0.831986,0 -1.56465,-0.150278 -2.20294,-0.450833 -0.63829,-0.300555 -1.17232,-0.726428 -1.60261,-1.27242 -0.430033,-0.545991 -0.756328,-1.20248 -0.978364,-1.96895 -0.222296,-0.766467 -0.335655,-1.60807 -0.335655,-2.52976 0,-1.23238 0.184337,-2.41484 0.548331,-3.54686 0.363994,-1.13228 0.869686,-2.13431 1.52202,-3.00581 0.652329,-0.871766 1.43258,-1.56803 2.33528,-2.08907 0.902965,-0.521031 1.88627,-0.781547 2.95459,-0.781547 0.954964,0 1.75367,0.175237 2.39664,0.530911 0.64271,0.355674 1.20534,0.876706 1.68763,1.55815l-0.794027 1.00696c-0.0662989,0.0800787 -0.137278,0.145078 -0.217616,0.195257 -0.0803387,0.0501792 -0.174977,0.0751388 -0.278975,0.0751388 -0.132338,0 -0.259736,-0.0649989 -0.387654,-0.190317 -0.127658,-0.125318 -0.297695,-0.265456 -0.505692,-0.420933 -0.207997,-0.155217 -0.463312,-0.295355 -0.770627,-0.420673 -0.307315,-0.125318 -0.704328,-0.185377 -1.18636,-0.185377 -0.652589,0 -1.26696,0.185377 -1.84363,0.561071 -0.576671,0.375694 -1.08262,0.891785 -1.51734,1.54307 -0.434973,0.651289 -0.775307,1.4227 -1.02594,2.31448 -0.250636,0.891785 -0.378034,1.84857 -0.378034,2.87061 0,0.62113 0.0660389,1.1822 0.198377,1.68815 0.132338,0.505952 0.330975,0.936765 0.59565,1.29244 0.264676,0.355674 0.59097,0.63127 0.973684,0.826786 0.382974,0.195257 0.827306,0.295615 1.33794,0.295615 0.63335,0 1.16764,-0.100358 1.59767,-0.300815 0.430033,-0.200197 0.789607,-0.420673 1.08262,-0.656229 0.293015,-0.235296 0.543391,-0.450833 0.746968,-0.651289 0.203317,-0.200197 0.401693,-0.300555 0.60033,-0.300555 0.179397,0 0.340074,0.0852786 0.482032,0.255576l0.62399 0.811447zm12.809 -9.22777c0,0.661169 -0.127658,1.26748 -0.382974,1.82361 -0.255316,0.555871 -0.723308,1.05688 -1.40424,1.50278 -0.680409,0.445893 -1.61639,0.836666 -2.80769,1.16738 -1.1913,0.330455 -2.72294,0.59617 -4.5949,0.796367 -0.00935985,0.110238 -0.0140398,0.215536 -0.0140398,0.320835 0,0.105038 0,0.215276 0,0.325515 0,1.34262 0.278715,2.36466 0.831726,3.07107 0.553271,0.706148 1.38526,1.06208 2.50064,1.06208 0.453953,0 0.860586,-0.0501792 1.21496,-0.150538 0.354894,-0.100098 0.671309,-0.225416 0.950284,-0.370494 0.278975,-0.145338 0.524671,-0.305755 0.737348,-0.480992 0.212677,-0.175497 0.406633,-0.335655 0.581351,-0.480992 0.174977,-0.145338 0.335655,-0.265456 0.487232,-0.365814 0.151058,-0.100098 0.302375,-0.150278 0.453693,-0.150278 0.179657,0 0.340334,0.0852786 0.482032,0.255576l0.62425 0.826527c-0.482292,0.531171 -0.955224,0.982004 -1.41828,1.3577 -0.463312,0.375694 -0.931305,0.691329 -1.40866,0.941965 -0.477352,0.250376 -0.978624,0.430813 -1.5033,0.545991 -0.524671,0.115178 -1.09198,0.175237 -1.69699,0.175237 -0.822627,0 -1.55997,-0.145338 -2.2123,-0.435753 -0.652589,-0.290675 -1.2056,-0.706408 -1.65929,-1.24252 -0.453953,-0.535851 -0.803647,-1.1822 -1.04934,-1.94373 -0.245956,-0.761528 -0.368674,-1.61301 -0.368674,-2.55498 0,-0.781547 0.0800787,-1.56309 0.236076,-2.33944 0.155997,-0.776607 0.382974,-1.51292 0.680929,-2.21438 0.297695,-0.701209 0.661689,-1.3525 1.09198,-1.95387 0.430033,-0.60111 0.921685,-1.12214 1.47496,-1.55789 0.553011,-0.435753 1.1627,-0.776607 1.82933,-1.02698 0.666369,-0.250636 1.38032,-0.375694 2.146,-0.375694 0.727988,0 1.35666,0.110238 1.88627,0.330455 0.529351,0.220476 0.964064,0.501012 1.30466,0.841866 0.340334,0.340594 0.59539,0.716288 0.761008,1.12708 0.165357,0.410793 0.245956,0.801567 0.245956,1.17232zm-4.33985 -1.54801c-0.59539,0 -1.14398,0.130258 -1.64499,0.390774 -0.501012,0.260516 -0.945345,0.61619 -1.333,1.07196 -0.387654,0.456033 -0.718628,0.991884 -0.992664,1.60807 -0.274296,0.61619 -0.486972,1.28256 -0.63803,1.99391 1.45572,-0.190317 2.62362,-0.410793 3.50292,-0.656229 0.878786,-0.245436 1.55503,-0.510892 2.02771,-0.796627 0.472932,-0.285475 0.784667,-0.59097 0.935985,-0.921685 0.151058,-0.330715 0.226976,-0.676249 0.226976,-1.03712 0,-0.180177 -0.0376994,-0.370494 -0.113618,-0.566011 -0.0753988,-0.195257 -0.193697,-0.370754 -0.359054,-0.530911 -0.165357,-0.160417 -0.382974,-0.295615 -0.647649,-0.400913 -0.264936,-0.105038 -0.58629,-0.155217 -0.964584,-0.155217zm5.57639 13.5112l1.73027 -15.2397 1.24798 0c0.567051,0 0.850706,0.300555 0.850706,0.901925l-0.212677 2.96057c0.765687,-1.34262 1.63095,-2.35946 2.59502,-3.04585 0.964584,-0.686389 1.95699,-1.02698 2.97825,-1.02698 0.60527,0 1.1393,0.125318 1.59767,0.380634 0.458633,0.255576 0.831986,0.63127 1.12058,1.12214 0.288335,0.491132 0.482032,1.09224 0.58603,1.80853 0.103998,0.716548 0.103998,1.53319 0,2.44474l-1.07768 9.69394 -2.51026 0 1.07794 -9.69394c0.132338,-1.20222 0.061359,-2.09401 -0.212677,-2.67016 -0.274296,-0.576151 -0.780247,-0.861626 -1.5176,-0.861626 -0.453693,0 -0.912065,0.130258 -1.38032,0.390774 -0.467992,0.260516 -0.921685,0.63127 -1.35666,1.11226 -0.434973,0.480732 -0.836926,1.05688 -1.21028,1.73339 -0.373354,0.676249 -0.694709,1.43258 -0.959384,2.2643l-0.822627 7.72499 -2.5243 0zm25.1041 0l-1.30466 0c-0.330975,0 -0.553271,-0.0902185 -0.671309,-0.270396 -0.118298,-0.180437 -0.179657,-0.400913 -0.179657,-0.661429l0.255316 -3.08095c-0.340334,0.64115 -0.704328,1.22224 -1.09666,1.74327 -0.392594,0.521031 -0.808327,0.961984 -1.24798,1.3278 -0.439653,0.365554 -0.902965,0.651029 -1.38526,0.851486 -0.482032,0.200457 -0.983304,0.300555 -1.50304,0.300555 -0.567311,0 -1.08262,-0.120118 -1.54593,-0.355674 -0.463052,-0.235296 -0.855646,-0.581091 -1.18168,-1.03686 -0.326295,-0.456033 -0.581351,-1.0171 -0.761008,-1.68347 -0.179917,-0.666109 -0.269616,-1.42764 -0.269616,-2.28926 0,-0.901925 0.108678,-1.78357 0.321615,-2.64026 0.212677,-0.856686 0.515312,-1.66319 0.907385,-2.42472 0.392334,-0.761528 0.860586,-1.46274 1.40866,-2.09895 0.548331,-0.63621 1.16296,-1.1874 1.83921,-1.65331 0.675729,-0.465912 1.39904,-0.826527 2.17434,-1.0821 0.775307,-0.255576 1.58831,-0.380634 2.43928,-0.380634 0.61463,0 1.21496,0.0499192 1.79631,0.155217 0.581351,0.105298 1.15334,0.290675 1.72039,0.551191l-1.71571 14.7285zm-6.18322 -2.01393c0.463312,0 0.917265,-0.155217 1.36134,-0.460972 0.444333,-0.305495 0.865266,-0.726428 1.26228,-1.26748 0.397014,-0.541051 0.770367,-1.18714 1.11564,-1.93359 0.345014,-0.746448 0.647649,-1.56309 0.912325,-2.45488l0.60995 -5.23007c-0.207997,-0.0501792 -0.411573,-0.0852786 -0.61463,-0.100098 -0.203317,-0.0150798 -0.406373,-0.0202797 -0.60527,-0.0202797 -0.567051,0 -1.11538,0.0954184 -1.64499,0.290675 -0.529351,0.195517 -1.02568,0.470852 -1.489,0.821587 -0.463312,0.350734 -0.883986,0.766467 -1.26202,1.2524 -0.378294,0.485932 -0.699649,1.02204 -0.969004,1.60313 -0.269616,0.581091 -0.482292,1.19728 -0.63361,1.85351 -0.151318,0.656489 -0.226716,1.33274 -0.226716,2.02407 0,2.41458 0.727728,3.622 2.1837,3.622zm24.3101 -3.65216c0.113358,0 0.226716,0.0200197 0.340074,0.0652589 0.113358,0.0449793 0.222296,0.125318 0.326035,0.235296l1.90057 2.11923c-0.831986,1.1523 -1.87197,2.01887 -3.12463,2.60516 -1.25266,0.58603 -2.73724,0.881646 -4.44827,0.881646 -1.56959,0 -2.97357,-0.285475 -4.21661,-0.851746 -1.2433,-0.566011 -2.29758,-1.34756 -3.16259,-2.34438 -0.865006,-0.997084 -1.53163,-2.17928 -1.99469,-3.54712 -0.463572,-1.36758 -0.695229,-2.85033 -0.695229,-4.45347 0,-1.63329 0.250896,-3.13607 0.751908,-4.50391 0.500752,-1.36758 1.20508,-2.54484 2.11299,-3.53672 0.907645,-0.991884 1.99469,-1.76355 3.26165,-2.31448 1.26696,-0.551191 2.66132,-0.826786 4.18359,-0.826786 0.775307,0 1.50798,0.0701989 2.19358,0.215536 0.685089,0.145338 1.32364,0.345794 1.91929,0.60111 0.59539,0.255576 1.14398,0.566271 1.64473,0.926885 0.501012,0.360614 0.945605,0.751388 1.33326,1.17232l-1.61665 2.2994c-0.103998,0.140398 -0.226976,0.265456 -0.368934,0.380634 -0.141698,0.115438 -0.340074,0.175497 -0.59565,0.175497 -0.170037,0 -0.330975,-0.0400393 -0.482032,-0.120378 -0.151318,-0.0800787 -0.311995,-0.180177 -0.482292,-0.295355 -0.170037,-0.115438 -0.354374,-0.240496 -0.557691,-0.375954 -0.203317,-0.135198 -0.444593,-0.260516 -0.723048,-0.375694 -0.278975,-0.115178 -0.60527,-0.210337 -0.978624,-0.290415 -0.373614,-0.0803387 -0.813267,-0.120378 -1.31428,-0.120378 -0.794287,0 -1.51734,0.155477 -2.17434,0.465912 -0.657269,0.310695 -1.22458,0.761528 -1.70193,1.3577 -0.477352,0.59617 -0.846286,1.32754 -1.10628,2.19436 -0.259736,0.866566 -0.392334,1.85845 -0.392334,2.97071 0,1.12214 0.146638,2.11897 0.434973,2.99073 0.288335,0.871766 0.680669,1.60313 1.17726,2.1993 0.496332,0.59617 1.073,1.05194 1.73469,1.36264 0.661949,0.310695 1.37096,0.465912 2.12729,0.465912 0.434973,0 0.831986,-0.0249596 1.1913,-0.0701989 0.359054,-0.0449793 0.694709,-0.120118 1.0067,-0.225416 0.312255,-0.105298 0.60501,-0.245436 0.879306,-0.420673 0.274036,-0.175497 0.553011,-0.395974 0.836666,-0.666369 0.113618,-0.100358 0.236596,-0.185377 0.368674,-0.250636 0.132598,-0.0649989 0.269616,-0.0951584 0.411573,-0.0951584zm9.9386 -10.1596c1.11538,0 2.13197,0.185377 3.04897,0.556131 0.917005,0.370494 1.70661,0.901665 2.36336,1.59299 0.657009,0.691329 1.16764,1.528 1.53163,2.51494 0.364254,0.986944 0.543651,2.09895 0.543651,3.33133 0,1.24252 -0.179397,2.35972 -0.543651,3.35655 -0.363994,0.997084 -0.874626,1.84363 -1.53163,2.5399 -0.656749,0.696529 -1.44636,1.23238 -2.36336,1.60833 -0.917005,0.375694 -1.93359,0.566011 -3.04897,0.566011 -1.12526,0 -2.14626,-0.190317 -3.06821,-0.566011 -0.921685,-0.375954 -1.71571,-0.911805 -2.38234,-1.60833 -0.666629,-0.696269 -1.18168,-1.54281 -1.54593,-2.5399 -0.363734,-0.996824 -0.548331,-2.11403 -0.548331,-3.35655 0,-1.23238 0.184597,-2.34438 0.548331,-3.33133 0.364254,-0.986944 0.879306,-1.82361 1.54593,-2.51494 0.666629,-0.691329 1.46066,-1.2225 2.38234,-1.59299 0.921945,-0.370754 1.94295,-0.556131 3.06821,-0.556131zm0 12.6095c1.01138,0 1.75835,-0.380894 2.23596,-1.13722 0.477352,-0.756588 0.713688,-1.90369 0.713688,-3.44676 0,-1.54307 -0.236336,-2.69018 -0.713688,-3.44182 -0.477612,-0.751388 -1.22458,-1.12708 -2.23596,-1.12708 -1.03998,0 -1.80125,0.375694 -2.28328,1.12708 -0.482032,0.751648 -0.723308,1.89875 -0.723308,3.44182 0,1.54307 0.241276,2.69018 0.723308,3.44676 0.482032,0.756328 1.2433,1.13722 2.28328,1.13722zm9.01691 3.21615l0 -15.5852 2.72268 0c0.548331,0 0.907645,0.260516 1.07768,0.781547l0.255316 0.901665c0.283655,-0.280535 0.576931,-0.541051 0.879306,-0.781547 0.302635,-0.240496 0.62893,-0.445893 0.973684,-0.61125 0.345274,-0.165357 0.718628,-0.295615 1.12058,-0.390774 0.401693,-0.0951584 0.836406,-0.140138 1.30934,-0.140138 0.803647,0 1.51734,0.145338 2.13691,0.440693 0.61905,0.295615 1.13904,0.706408 1.56439,1.23238 0.425613,0.526231 0.746968,1.1523 0.964324,1.87873 0.217616,0.726428 0.326295,1.51812 0.326295,2.3696l0 9.90428 -4.39627 0 0 -9.90428c0,-0.761528 -0.165357,-1.3577 -0.496332,-1.78331 -0.330975,-0.425873 -0.817947,-0.63647 -1.46066,-0.63647 -0.482292,0 -0.935985,0.110238 -1.36134,0.330715 -0.425613,0.220476 -0.832246,0.516092 -1.2199,0.886846l0 11.1065 -4.39601 0zm23.2834 0l-3.99925 0 -5.70093 -15.5852 3.65892 0c0.311735,0 0.576411,0.0751388 0.789087,0.230356 0.212937,0.155217 0.354894,0.350734 0.430553,0.581091l2.04201 6.98869c0.179657,0.570951 0.340334,1.12708 0.477352,1.66813 0.137278,0.541051 0.255316,1.0821 0.359314,1.62315 0.103998,-0.541051 0.226976,-1.0821 0.368674,-1.62315 0.141698,-0.541051 0.307315,-1.09718 0.496592,-1.66813l2.12703 -6.98869c0.0756588,-0.230356 0.217616,-0.425873 0.425613,-0.581091 0.207737,-0.155217 0.453693,-0.230356 0.737088,-0.230356l3.48888 0 -5.70093 15.5852zm12.4346 -15.8257c0.973684,0 1.86729,0.160157 2.67562,0.480992 0.808327,0.320575 1.5033,0.786487 2.08465,1.39748 0.581351,0.61125 1.0353,1.3577 1.36134,2.24454 0.326295,0.886586 0.486972,1.89355 0.486972,3.01569 0,0.350734 -0.0142998,0.63647 -0.0423793,0.856686 -0.0285995,0.220476 -0.0805987,0.395974 -0.155997,0.526231 -0.0759188,0.130258 -0.174977,0.220216 -0.302635,0.270396 -0.127658,0.0501792 -0.293015,0.0751388 -0.491652,0.0751388l-8.48054 0c0.141698,1.30258 0.515052,2.24428 1.12032,2.83057 0.60501,0.58603 1.385,0.881646 2.33996,0.881646 0.510632,0 0.950024,-0.0649989 1.3187,-0.195257 0.368674,-0.130258 0.699649,-0.275595 0.988244,-0.436013 0.288335,-0.160157 0.553011,-0.305495 0.794027,-0.435753 0.241016,-0.130258 0.491652,-0.195517 0.756588,-0.195517 0.349434,0 0.61437,0.135458 0.794027,0.405853l1.27632 1.66839c-0.453953,0.550931 -0.940665,0.996824 -1.4656,1.34236 -0.524671,0.345794 -1.06338,0.61619 -1.61665,0.811707 -0.553011,0.195257 -1.10628,0.330715 -1.65903,0.405853 -0.553011,0.0751388 -1.08262,0.115178 -1.58363,0.115178 -1.03062,0 -1.99495,-0.180437 -2.89791,-0.536111 -0.902965,-0.355674 -1.69231,-0.881646 -2.3683,-1.58311 -0.675989,-0.701209 -1.21002,-1.57297 -1.60235,-2.61504 -0.392334,-1.04206 -0.59097,-2.25442 -0.59097,-3.63708 0,-1.04206 0.170037,-2.02901 0.505692,-2.96057 0.335655,-0.931825 0.817687,-1.74847 1.44662,-2.44994 0.62867,-0.701209 1.38968,-1.25734 2.28328,-1.66813 0.893345,-0.410793 1.90031,-0.61619 3.02531,-0.61619zm0.0852786 3.21615c-0.841606,0 -1.49888,0.250636 -1.97129,0.756588 -0.472672,0.505952 -0.784927,1.23732 -0.936245,2.18916l5.48825 0c0,-0.370754 -0.0423793,-0.731368 -0.132078,-1.0821 -0.0899585,-0.350734 -0.236596,-0.666369 -0.439653,-0.941705 -0.203317,-0.275595 -0.472672,-0.496072 -0.803647,-0.666369 -0.330975,-0.170297 -0.732928,-0.255576 -1.20534,-0.255576zm8.03829 12.6095l0 -15.5852 2.60932 0c0.217356,0 0.401693,0.0200197 0.548331,0.060059 0.146378,0.0400393 0.269356,0.100098 0.368674,0.185377 0.0993184,0.0850186 0.174977,0.200457 0.226976,0.340594 0.0519992,0.140398 0.0943785,0.310695 0.132078,0.510892l0.212937 1.3226c0.463312,-0.841606 0.992664,-1.50772 1.58363,-1.99365 0.59097,-0.486192 1.2667,-0.726428 2.03265,-0.726428 0.661689,0 1.20066,0.165097 1.61665,0.495812l-0.283655 3.42674c-0.0470592,0.220476 -0.122718,0.370754 -0.231656,0.450833 -0.108678,0.0800787 -0.259736,0.120118 -0.449013,0.120118 -0.0753988,0 -0.174977,-0.00493992 -0.297695,-0.0148198 -0.122978,-0.0101398 -0.250636,-0.0252196 -0.382974,-0.0402993 -0.132338,-0.0148198 -0.264676,-0.0298995 -0.401953,-0.0449793 -0.136758,-0.0150798 -0.264676,-0.0200197 -0.378034,-0.0200197 -0.642969,0 -1.1536,0.180437 -1.53631,0.545991 -0.382974,0.365814 -0.709268,0.871766 -0.973944,1.51292l0 9.45345 -4.39601 0zm15.3985 0.240496c-0.699649,0 -1.31402,-0.110238 -1.84831,-0.325775 -0.534291,-0.215276 -0.983044,-0.520771 -1.3473,-0.916745 -0.363994,-0.395714 -0.642969,-0.871506 -0.831726,-1.43258 -0.189277,-0.561331 -0.283655,-1.1874 -0.283655,-1.87873l0 -8.05571 -1.24798 0c-0.226976,0 -0.420933,-0.0800787 -0.581611,-0.235556 -0.160677,-0.155217 -0.241016,-0.380634 -0.241016,-0.681189l0 -1.81867 2.33996 -0.480732 0.865006 -3.80244c0.113358,-0.480992 0.434973,-0.721488 0.964324,-0.721488l2.29732 0 0 4.55383 3.64462 0 0 3.18625 -3.64462 0 0 7.74007c0,0.360614 0.0852786,0.656229 0.250636,0.891785 0.165357,0.235296 0.401693,0.355674 0.713688,0.355674 0.160677,0 0.297955,-0.0200197 0.406633,-0.0551191 0.108678,-0.0350994 0.203317,-0.0751388 0.283655,-0.120378 0.0803387,-0.0449793 0.155997,-0.0850186 0.226976,-0.120118 0.0707188,-0.0350994 0.151318,-0.0501792 0.245696,-0.0501792 0.132598,0 0.241276,0.0301595 0.321355,0.0951584 0.0805987,0.0652589 0.160677,0.170297 0.245956,0.310695l1.333 2.20918c-0.567051,0.451093 -1.20534,0.786747 -1.91461,1.01216 -0.709008,0.225416 -1.44168,0.340594 -2.198,0.340594zm11.2862 -16.0662c0.973684,0 1.86729,0.160157 2.67562,0.480992 0.808327,0.320575 1.50304,0.786487 2.08465,1.39748 0.581351,0.61125 1.0353,1.3577 1.36134,2.24454 0.326295,0.886586 0.486972,1.89355 0.486972,3.01569 0,0.350734 -0.0142998,0.63647 -0.0426393,0.856686 -0.0283395,0.220476 -0.0803387,0.395974 -0.155997,0.526231 -0.0756588,0.130258 -0.174717,0.220216 -0.302375,0.270396 -0.127918,0.0501792 -0.293275,0.0751388 -0.491652,0.0751388l-8.48054 0c0.141698,1.30258 0.515052,2.24428 1.12032,2.83057 0.60501,0.58603 1.385,0.881646 2.33996,0.881646 0.510632,0 0.950024,-0.0649989 1.3187,-0.195257 0.368674,-0.130258 0.699649,-0.275595 0.988244,-0.436013 0.288075,-0.160157 0.553011,-0.305495 0.794027,-0.435753 0.241016,-0.130258 0.491652,-0.195517 0.756328,-0.195517 0.349694,0 0.61463,0.135458 0.794287,0.405853l1.27606 1.66839c-0.453693,0.550931 -0.940405,0.996824 -1.46534,1.34236 -0.524671,0.345794 -1.06338,0.61619 -1.61665,0.811707 -0.553011,0.195257 -1.10628,0.330715 -1.65929,0.405853 -0.553011,0.0751388 -1.08262,0.115178 -1.58363,0.115178 -1.03062,0 -1.99469,-0.180437 -2.89765,-0.536111 -0.902965,-0.355674 -1.69231,-0.881646 -2.3683,-1.58311 -0.676249,-0.701209 -1.21028,-1.57297 -1.60261,-2.61504 -0.392074,-1.04206 -0.59097,-2.25442 -0.59097,-3.63708 0,-1.04206 0.170297,-2.02901 0.505952,-2.96057 0.335655,-0.931825 0.817687,-1.74847 1.44636,-2.44994 0.62893,-0.701209 1.38994,-1.25734 2.28354,-1.66813 0.893345,-0.410793 1.90031,-0.61619 3.02531,-0.61619zm0.0850186 3.21615c-0.841346,0 -1.49862,0.250636 -1.97103,0.756588 -0.472932,0.505952 -0.784927,1.23732 -0.936245,2.18916l5.48825 0c0,-0.370754 -0.0423793,-0.731368 -0.132338,-1.0821 -0.0896985,-0.350734 -0.236336,-0.666369 -0.439393,-0.941705 -0.203577,-0.275595 -0.472932,-0.496072 -0.803907,-0.666369 -0.330975,-0.170297 -0.732668,-0.255576 -1.20534,-0.255576z"/>
   <rect id="_169610392" class="fil2" y="126.24" width="239.999" height="42.4766"/>
   <path id="_169610008" class="fil1" d="M42.9978 155.948c0.62425,0 1.17726,-0.0551191 1.65955,-0.165357 0.482032,-0.110238 0.907385,-0.245436 1.27606,-0.405593 0.368934,-0.160417 0.685609,-0.340854 0.945605,-0.536111 0.259996,-0.195517 0.486712,-0.370754 0.680669,-0.531171 0.193697,-0.160157 0.354634,-0.295355 0.486972,-0.405593 0.132338,-0.110238 0.250376,-0.165357 0.354374,-0.165357 0.0852786,0 0.155997,0.0150798 0.212677,0.0499192 0.0569391,0.0350994 0.103998,0.0803387 0.141958,0.130258l0.921945 1.21756c-0.888925,1.02178 -1.90993,1.81347 -3.06821,2.37948 -1.15802,0.566271 -2.51,0.851746 -4.05125,0.851746 -1.21938,0 -2.30668,-0.230356 -3.26633,-0.691329 -0.959644,-0.460972 -1.77265,-1.10732 -2.43928,-1.93385 -0.666629,-0.826527 -1.177,-1.80853 -1.53163,-2.95069 -0.354374,-1.14216 -0.534031,-2.39976 -0.534031,-3.77228 0,-1.87379 0.274296,-3.5869 0.822627,-5.14012 0.548331,-1.55295 1.30466,-2.89063 2.26404,-4.00757 0.959904,-1.1172 2.08491,-1.98403 3.37994,-2.60022 1.29556,-0.61619 2.68992,-0.921685 4.18385,-0.921685 0.718368,0 1.3707,0.0649989 1.95699,0.195257 0.58603,0.130258 1.12032,0.320575 1.60235,0.571211 0.482032,0.250376 0.921685,0.550931 1.31428,0.901665 0.392334,0.350734 0.756328,0.741508 1.09666,1.17232l-0.907645 1.17232c-0.0756588,0.100098 -0.160677,0.180437 -0.255316,0.245436 -0.0943785,0.0652589 -0.212677,0.100098 -0.354374,0.100098 -0.170297,0 -0.349954,-0.100098 -0.538971,-0.300555 -0.189277,-0.200197 -0.444333,-0.420673 -0.770627,-0.656229 -0.326035,-0.235296 -0.746708,-0.450833 -1.26202,-0.651289 -0.515312,-0.200457 -1.18662,-0.300555 -2.00899,-0.300555 -1.10628,0 -2.13197,0.230356 -3.08225,0.696269 -0.950024,0.465912 -1.77733,1.13228 -2.47698,1.99911 -0.699649,0.866566 -1.24798,1.91851 -1.64993,3.15089 -0.401693,1.23264 -0.60501,2.6153 -0.60501,4.14823 0,1.112 0.137278,2.10909 0.411313,2.99073 0.274296,0.881646 0.657009,1.62809 1.14398,2.24428 0.486972,0.61619 1.06364,1.09224 1.73495,1.42296 0.671309,0.330455 1.40866,0.495812 2.21204,0.495812z"/>
   <path id="_1696100081" class="fil1" d="M55.9051 142.903l-1.73001 15.2246 -2.48166 0 1.73001 -15.2246 2.48166 0zm0.964584 -4.77924c0,0.260516 -0.0475792,0.501012 -0.146898,0.726428 -0.0990584,0.225416 -0.231396,0.425873 -0.396754,0.60111 -0.165617,0.175237 -0.354634,0.315635 -0.567571,0.415733 -0.212677,0.100358 -0.434713,0.150278 -0.661689,0.150278 -0.217356,0 -0.430293,-0.0499192 -0.63803,-0.150278 -0.207997,-0.100098 -0.387654,-0.240496 -0.543651,-0.415733 -0.155997,-0.175237 -0.283655,-0.375694 -0.378294,-0.60111 -0.0943785,-0.225416 -0.141958,-0.465912 -0.141958,-0.726428 0,-0.260516 0.0475792,-0.505952 0.141958,-0.736568 0.0946385,-0.230356 0.222296,-0.435753 0.382974,-0.61099 0.160677,-0.175497 0.345014,-0.315635 0.553011,-0.420933 0.207997,-0.105298 0.420673,-0.155217 0.63829,-0.155217 0.226976,0 0.449013,0.0499192 0.661689,0.150278 0.212677,0.100098 0.397014,0.235296 0.557951,0.410793 0.160677,0.175237 0.293015,0.380634 0.392074,0.61619 0.0993184,0.235296 0.146898,0.485932 0.146898,0.746448z"/>
   <path id="_16961000812" class="fil1" d="M69.3232 146.164c0,0.661169 -0.127658,1.26748 -0.382974,1.82361 -0.255316,0.555871 -0.723308,1.05688 -1.40424,1.50278 -0.680409,0.445893 -1.61639,0.836666 -2.80769,1.16738 -1.1913,0.330455 -2.72294,0.59617 -4.5949,0.796367 -0.00961984,0.110238 -0.0142998,0.215536 -0.0142998,0.320835 0,0.105038 0,0.215276 0,0.325515 0,1.34262 0.278975,2.36466 0.831986,3.07107 0.553271,0.706148 1.38526,1.06208 2.50064,1.06208 0.453953,0 0.860586,-0.0501792 1.21496,-0.150538 0.354634,-0.100098 0.671309,-0.225416 0.950284,-0.370494 0.278715,-0.145338 0.524671,-0.305755 0.737348,-0.480992 0.212677,-0.175497 0.406633,-0.335655 0.581351,-0.480992 0.174977,-0.145338 0.335655,-0.265456 0.486972,-0.365814 0.151318,-0.100098 0.302635,-0.150278 0.453953,-0.150278 0.179657,0 0.340334,0.0852786 0.482032,0.255576l0.62425 0.826527c-0.482292,0.531171 -0.955224,0.982004 -1.41828,1.3577 -0.463312,0.375694 -0.931305,0.691329 -1.40866,0.941965 -0.477612,0.250376 -0.978624,0.430813 -1.5033,0.545991 -0.524671,0.115178 -1.09198,0.175237 -1.69725,0.175237 -0.822367,0 -1.55971,-0.145338 -2.21204,-0.435753 -0.652589,-0.290675 -1.2056,-0.706408 -1.65955,-1.24252 -0.453693,-0.535851 -0.803387,-1.1822 -1.04908,-1.94373 -0.245956,-0.761528 -0.368934,-1.61301 -0.368934,-2.55498 0,-0.781547 0.0803387,-1.56309 0.236336,-2.33944 0.155997,-0.776607 0.382974,-1.51292 0.680929,-2.21438 0.297695,-0.701209 0.661689,-1.3525 1.09198,-1.95387 0.430033,-0.60111 0.921685,-1.12214 1.47496,-1.55789 0.552751,-0.435753 1.1627,-0.776607 1.82933,-1.02698 0.666369,-0.250636 1.38032,-0.375694 2.146,-0.375694 0.727988,0 1.35666,0.110238 1.88627,0.330455 0.529351,0.220476 0.964064,0.501012 1.30466,0.841866 0.340334,0.340594 0.59539,0.716288 0.761008,1.12708 0.165357,0.410793 0.245956,0.801567 0.245956,1.17232zm-4.33985 -1.54801c-0.59539,0 -1.14398,0.130258 -1.64499,0.390774 -0.501012,0.260516 -0.945345,0.61619 -1.333,1.07196 -0.387654,0.456033 -0.718628,0.991884 -0.992664,1.60807 -0.274296,0.61619 -0.486972,1.28256 -0.63803,1.99391 1.45572,-0.190317 2.62362,-0.410793 3.50266,-0.656229 0.879046,-0.245436 1.55529,-0.510892 2.02797,-0.796627 0.472932,-0.285475 0.784667,-0.59097 0.935985,-0.921685 0.151058,-0.330715 0.226976,-0.676249 0.226976,-1.03712 0,-0.180177 -0.0376994,-0.370494 -0.113618,-0.566011 -0.0756588,-0.195257 -0.193697,-0.370754 -0.359054,-0.530911 -0.165357,-0.160417 -0.382974,-0.295615 -0.647909,-0.400913 -0.264676,-0.105038 -0.58603,-0.155217 -0.964324,-0.155217zm4.14121 -4.05801l-1.55997 0c-0.0943785,0 -0.184597,-0.0200197 -0.274296,-0.060059 -0.0896985,-0.0400393 -0.179657,-0.115178 -0.264676,-0.225416l-1.40398 -1.98377c-0.0379594,-0.0400393 -0.0707188,-0.0852786 -0.0993184,-0.135458 -0.0283395,-0.0499192 -0.0566791,-0.100098 -0.0850186,-0.150278l-0.241276 0.285735 -1.84337 1.98377c-0.179657,0.190317 -0.378294,0.285475 -0.59565,0.285475l-1.61665 0 3.33263 -3.96754 2.15562 0 2.49596 3.96754z"/>
   <path id="_169610008123" class="fil1" d="M70.8569 158.127l1.73001 -15.2397 1.24824 0c0.567051,0 0.850706,0.300555 0.850706,0.901925l-0.212677 2.96057c0.765687,-1.34262 1.63095,-2.35946 2.59502,-3.04585 0.964584,-0.686389 1.95699,-1.02698 2.97825,-1.02698 0.60501,0 1.1393,0.125318 1.59767,0.380634 0.458633,0.255576 0.831986,0.63127 1.12058,1.12214 0.288075,0.491132 0.482032,1.09224 0.58603,1.80853 0.103998,0.716548 0.103998,1.53319 0,2.44474l-1.07768 9.69394 -2.51026 0 1.07794 -9.69394c0.132338,-1.20222 0.061359,-2.09401 -0.212677,-2.67016 -0.274296,-0.576151 -0.780247,-0.861626 -1.5176,-0.861626 -0.453693,0 -0.912325,0.130258 -1.38032,0.390774 -0.467992,0.260516 -0.921685,0.63127 -1.35666,1.11226 -0.434973,0.480732 -0.836926,1.05688 -1.21028,1.73339 -0.373354,0.676249 -0.694709,1.43258 -0.959384,2.2643l-0.822627 7.72499 -2.5243 0z"/>
   <path id="_1696100081234" class="fil1" d="M96.2582 155.392c-0.491652,0.571211 -0.959904,1.04726 -1.40424,1.4279 -0.444073,0.380634 -0.888405,0.681189 -1.333,0.906865 -0.444333,0.225416 -0.902965,0.385574 -1.38032,0.475792 -0.477352,0.0902185 -0.992664,0.135198 -1.54073,0.135198 -0.832246,0 -1.56491,-0.150278 -2.2032,-0.450833 -0.63803,-0.300555 -1.17232,-0.726428 -1.60261,-1.27242 -0.430033,-0.545991 -0.756328,-1.20248 -0.978364,-1.96895 -0.222296,-0.766467 -0.335655,-1.60807 -0.335655,-2.52976 0,-1.23238 0.184337,-2.41484 0.548331,-3.54686 0.364254,-1.13228 0.869686,-2.13431 1.52228,-3.00581 0.652329,-0.871766 1.43232,-1.56803 2.33528,-2.08907 0.902705,-0.521031 1.88601,-0.781547 2.95433,-0.781547 0.954964,0 1.75367,0.175237 2.39664,0.530911 0.642969,0.355674 1.20534,0.876706 1.68763,1.55815l-0.794027 1.00696c-0.0662989,0.0800787 -0.137018,0.145078 -0.217616,0.195257 -0.0803387,0.0501792 -0.174977,0.0751388 -0.278975,0.0751388 -0.132078,0 -0.259736,-0.0649989 -0.387654,-0.190317 -0.127398,-0.125318 -0.297435,-0.265456 -0.505432,-0.420933 -0.208257,-0.155217 -0.463572,-0.295355 -0.770627,-0.420673 -0.307575,-0.125318 -0.704328,-0.185377 -1.18662,-0.185377 -0.652589,0 -1.2667,0.185377 -1.84363,0.561071 -0.576671,0.375694 -1.08262,0.891785 -1.51734,1.54307 -0.434973,0.651289 -0.775307,1.4227 -1.02594,2.31448 -0.250376,0.891785 -0.378034,1.84857 -0.378034,2.87061 0,0.62113 0.0662989,1.1822 0.198377,1.68815 0.132598,0.505952 0.330975,0.936765 0.59565,1.29244 0.264676,0.355674 0.59097,0.63127 0.973684,0.826786 0.382974,0.195257 0.827306,0.295615 1.33794,0.295615 0.63335,0 1.16764,-0.100358 1.59793,-0.300815 0.430033,-0.200197 0.789347,-0.420673 1.08262,-0.656229 0.292755,-0.235296 0.543391,-0.450833 0.746708,-0.651289 0.203317,-0.200197 0.401953,-0.300555 0.60033,-0.300555 0.179657,0 0.340334,0.0852786 0.482032,0.255576l0.62425 0.811447z"/>
   <path id="_16961000812345" class="fil1" d="M102.344 142.903l-1.73001 15.2246 -2.48166 0 1.73001 -15.2246 2.48166 0zm0.964584 -4.77924c0,0.260516 -0.0475792,0.501012 -0.146898,0.726428 -0.0990584,0.225416 -0.231396,0.425873 -0.396754,0.60111 -0.165617,0.175237 -0.354634,0.315635 -0.567571,0.415733 -0.212677,0.100358 -0.434713,0.150278 -0.661689,0.150278 -0.217356,0 -0.430293,-0.0499192 -0.63803,-0.150278 -0.207997,-0.100098 -0.387654,-0.240496 -0.543651,-0.415733 -0.155997,-0.175237 -0.283655,-0.375694 -0.378294,-0.60111 -0.0943785,-0.225416 -0.141958,-0.465912 -0.141958,-0.726428 0,-0.260516 0.0475792,-0.505952 0.141958,-0.736568 0.0946385,-0.230356 0.222296,-0.435753 0.382974,-0.61099 0.160677,-0.175497 0.345014,-0.315635 0.553011,-0.420933 0.207997,-0.105298 0.420673,-0.155217 0.63829,-0.155217 0.226976,0 0.449013,0.0499192 0.661689,0.150278 0.212677,0.100098 0.397014,0.235296 0.557951,0.410793 0.160677,0.175237 0.293015,0.380634 0.392074,0.61619 0.0993184,0.235296 0.146898,0.485932 0.146898,0.746448z"/>
   <path id="_169610008123456" class="fil1" d="M114.883 158.127l-1.30466 0c-0.330975,0 -0.553271,-0.0902185 -0.671309,-0.270396 -0.118298,-0.180437 -0.179917,-0.400913 -0.179917,-0.661429l0.255576 -3.08095c-0.340334,0.64115 -0.704588,1.22224 -1.09666,1.74327 -0.392594,0.521031 -0.808327,0.961984 -1.24798,1.3278 -0.439653,0.365554 -0.902965,0.651029 -1.38526,0.851486 -0.482032,0.200457 -0.983304,0.300555 -1.50304,0.300555 -0.567311,0 -1.08288,-0.120118 -1.54593,-0.355674 -0.463312,-0.235296 -0.855646,-0.581091 -1.18168,-1.03686 -0.326295,-0.456033 -0.581611,-1.0171 -0.761008,-1.68347 -0.179917,-0.666109 -0.269616,-1.42764 -0.269616,-2.28926 0,-0.901925 0.108678,-1.78357 0.321615,-2.64026 0.212677,-0.856686 0.515052,-1.66319 0.907385,-2.42472 0.392334,-0.761528 0.860326,-1.46274 1.40866,-2.09895 0.548331,-0.63621 1.16296,-1.1874 1.83895,-1.65331 0.675989,-0.465912 1.3993,-0.826527 2.1746,-1.0821 0.775047,-0.255576 1.58805,-0.380634 2.43928,-0.380634 0.61437,0 1.2147,0.0499192 1.79631,0.155217 0.581351,0.105298 1.15334,0.290675 1.72039,0.551191l-1.71571 14.7285zm-6.18322 -2.01393c0.463312,0 0.917005,-0.155217 1.36134,-0.460972 0.444333,-0.305495 0.865006,-0.726428 1.26228,-1.26748 0.397014,-0.541051 0.770367,-1.18714 1.11564,-1.93359 0.345014,-0.746448 0.647649,-1.56309 0.912325,-2.45488l0.60995 -5.23007c-0.208257,-0.0501792 -0.411573,-0.0852786 -0.61463,-0.100098 -0.203317,-0.0150798 -0.406633,-0.0202797 -0.60527,-0.0202797 -0.567311,0 -1.11564,0.0954184 -1.64499,0.290675 -0.529351,0.195517 -1.02568,0.470852 -1.489,0.821587 -0.463312,0.350734 -0.883986,0.766467 -1.26202,1.2524 -0.378294,0.485932 -0.699649,1.02204 -0.969264,1.60313 -0.269616,0.581091 -0.482292,1.19728 -0.63335,1.85351 -0.151318,0.656489 -0.226976,1.33274 -0.226976,2.02407 0,2.41458 0.727988,3.622 2.18396,3.622z"/>
   <path id="_1696100081234567" class="fil1" d="M136.297 152.461c0.113358,0 0.226716,0.0200197 0.340334,0.0652589 0.113358,0.0449793 0.222296,0.125318 0.326035,0.235296l1.90031 2.11923c-0.831986,1.1523 -1.87171,2.01887 -3.12437,2.60516 -1.25292,0.58603 -2.73724,0.881646 -4.44853,0.881646 -1.56933,0 -2.97331,-0.285475 -4.21635,-0.851746 -1.24356,-0.566011 -2.29758,-1.34756 -3.16259,-2.34438 -0.865266,-0.997084 -1.53163,-2.17928 -1.99495,-3.54712 -0.463312,-1.36758 -0.694969,-2.85033 -0.694969,-4.45347 0,-1.63329 0.250636,-3.13607 0.751648,-4.50391 0.501012,-1.36758 1.20534,-2.54484 2.11299,-3.53672 0.907905,-0.991884 1.99495,-1.76355 3.26191,-2.31448 1.2667,-0.551191 2.66132,-0.826786 4.18359,-0.826786 0.775307,0 1.50798,0.0701989 2.19332,0.215536 0.685349,0.145338 1.32364,0.345794 1.91929,0.60111 0.59539,0.255576 1.14398,0.566271 1.64499,0.926885 0.501012,0.360614 0.945605,0.751388 1.33326,1.17232l-1.61691 2.2994c-0.103998,0.140398 -0.226976,0.265456 -0.368674,0.380634 -0.141698,0.115438 -0.340334,0.175497 -0.59565,0.175497 -0.170297,0 -0.330975,-0.0400393 -0.482032,-0.120378 -0.151318,-0.0800787 -0.311995,-0.180177 -0.482292,-0.295355 -0.170037,-0.115438 -0.354634,-0.240496 -0.557691,-0.375954 -0.203317,-0.135198 -0.444593,-0.260516 -0.723308,-0.375694 -0.278975,-0.115178 -0.60527,-0.210337 -0.978624,-0.290415 -0.373354,-0.0803387 -0.813007,-0.120378 -1.31428,-0.120378 -0.794027,0 -1.51734,0.155477 -2.17434,0.465912 -0.657269,0.310695 -1.22432,0.761528 -1.70193,1.3577 -0.477352,0.59617 -0.846026,1.32754 -1.10602,2.19436 -0.259996,0.866566 -0.392334,1.85845 -0.392334,2.97071 0,1.12214 0.146378,2.11897 0.434973,2.99073 0.288335,0.871766 0.680409,1.60313 1.177,2.1993 0.496332,0.59617 1.07326,1.05194 1.73469,1.36264 0.661949,0.310695 1.37096,0.465912 2.12729,0.465912 0.434973,0 0.831986,-0.0249596 1.19156,-0.0701989 0.359054,-0.0449793 0.694709,-0.120118 1.0067,-0.225416 0.311995,-0.105298 0.60501,-0.245436 0.879306,-0.420673 0.274036,-0.175497 0.553011,-0.395974 0.836666,-0.666369 0.113358,-0.100358 0.236336,-0.185377 0.368674,-0.250636 0.132338,-0.0649989 0.269616,-0.0951584 0.411313,-0.0951584z"/>
   <path id="_16961000812345678" class="fil1" d="M144.558 142.542l0 15.5852 -4.39653 0 0 -15.5852 4.39653 0zm0.453693 -4.26835c0,0.370754 -0.0707188,0.716288 -0.212677,1.04206 -0.141698,0.325515 -0.335655,0.61125 -0.581351,0.856686 -0.245956,0.245436 -0.529351,0.440693 -0.855646,0.58603 -0.326295,0.145338 -0.675989,0.220476 -1.04466,0.220476 -0.359574,0 -0.694969,-0.0751388 -1.00722,-0.220476 -0.311735,-0.145338 -0.58603,-0.340594 -0.827046,-0.58603 -0.241016,-0.245436 -0.430293,-0.531171 -0.567311,-0.856686 -0.137278,-0.325775 -0.207997,-0.671309 -0.207997,-1.04206 0,-0.380634 0.0707188,-0.736568 0.207997,-1.06702 0.137018,-0.330715 0.326295,-0.62139 0.567311,-0.871766 0.241016,-0.250376 0.515312,-0.445893 0.827046,-0.58603 0.312255,-0.140398 0.647649,-0.210597 1.00722,-0.210597 0.368674,0 0.718368,0.0701989 1.04466,0.210597 0.326295,0.140138 0.60969,0.335655 0.855646,0.58603 0.245696,0.250376 0.439653,0.541051 0.581351,0.871766 0.141958,0.330455 0.212677,0.686389 0.212677,1.06702z"/>
   <path id="_169610008123456789" class="fil1" d="M157.839 158.127c-0.548331,0 -0.907645,-0.260516 -1.07768,-0.781547l-0.340334 -1.1874c-0.293275,0.330715 -0.60033,0.63127 -0.921945,0.901925 -0.321355,0.270396 -0.666369,0.501012 -1.03998,0.696269 -0.373354,0.195517 -0.775307,0.345794 -1.20534,0.450833 -0.430293,0.105298 -0.898285,0.160417 -1.3993,0.160417 -0.765687,0 -1.4747,-0.180437 -2.12703,-0.541051 -0.652589,-0.360614 -1.21496,-0.881646 -1.68763,-1.56309 -0.472932,-0.681189 -0.841606,-1.51786 -1.11096,-2.5048 -0.269616,-0.986944 -0.406633,-2.10909 -0.406633,-3.37162 0,-1.16218 0.151318,-2.24428 0.453693,-3.24137 0.302635,-0.996824 0.732928,-1.85845 1.28594,-2.58488 0.553011,-0.726428 1.2147,-1.29244 1.99001,-1.70323 0.775307,-0.410793 1.63095,-0.61619 2.56694,-0.61619 0.756328,0 1.3993,0.115178 1.92397,0.350474 0.524671,0.235556 0.997344,0.546251 1.42296,0.926885l0 -7.89035 4.39627 0 0 22.4987 -2.72294 0zm-4.45295 -3.33653c0.321615,0 0.61437,-0.0350994 0.874626,-0.100098 0.259996,-0.0652589 0.496072,-0.155477 0.713688,-0.275595 0.217356,-0.120118 0.425613,-0.270396 0.61931,-0.450833 0.193697,-0.180437 0.382714,-0.390774 0.571991,-0.63127l0 -6.61273c-0.340334,-0.390774 -0.699649,-0.666369 -1.08262,-0.821587 -0.382974,-0.155477 -0.789347,-0.230616 -1.2147,-0.230616 -0.406633,0 -0.780247,0.0852786 -1.12058,0.255576 -0.340074,0.170297 -0.63335,0.440953 -0.883986,0.816647 -0.250376,0.375694 -0.449013,0.866566 -0.59097,1.46768 -0.141698,0.60137 -0.212677,1.3278 -0.212677,2.17928 0,0.821587 0.0566791,1.51292 0.170297,2.07399 0.113358,0.561071 0.274036,1.01216 0.477352,1.3577 0.203577,0.345794 0.444333,0.59617 0.727988,0.746448 0.283915,0.150278 0.60033,0.225416 0.950284,0.225416z"/>
   <path id="_16961000812345678910" class="fil1" d="M173.006 158.127c-0.415733,0 -0.727728,-0.060059 -0.940405,-0.180437 -0.212677,-0.120118 -0.392334,-0.370754 -0.534291,-0.751388l-0.311995 -0.856686c-0.368674,0.330715 -0.723308,0.62113 -1.06364,0.871766 -0.340334,0.250376 -0.690289,0.460972 -1.05402,0.63621 -0.363994,0.175237 -0.751648,0.305495 -1.16296,0.390774 -0.411313,0.0850186 -0.869946,0.130258 -1.3707,0.130258 -0.671309,0 -1.28126,-0.0951584 -1.82959,-0.280535 -0.548331,-0.185377 -1.01164,-0.456033 -1.39436,-0.816647 -0.382974,-0.360614 -0.680929,-0.811447 -0.888925,-1.34756 -0.207997,-0.536111 -0.311995,-1.1523 -0.311995,-1.85351 0,-0.551191 0.132338,-1.1172 0.397014,-1.69855 0.264936,-0.581091 0.723308,-1.112 1.37564,-1.58805 0.652329,-0.475792 1.53163,-0.871506 2.63792,-1.19234 1.10602,-0.320575 2.50064,-0.500752 4.18359,-0.541051l0 -0.661169c0,-0.911805 -0.174977,-1.57297 -0.529611,-1.97883 -0.354634,-0.405853 -0.860326,-0.60631 -1.51266,-0.60631 -0.519992,0 -0.945345,0.060319 -1.27632,0.180437 -0.330975,0.120378 -0.62399,0.255576 -0.883986,0.405853 -0.259996,0.150278 -0.515052,0.285475 -0.761008,0.405853 -0.245696,0.120118 -0.538971,0.180177 -0.879306,0.180177 -0.302635,0 -0.557951,-0.0800787 -0.765947,-0.240496 -0.207997,-0.160157 -0.378034,-0.350474 -0.510372,-0.570951l-0.794287 -1.4578c0.888925,-0.831726 1.87691,-1.45286 2.95927,-1.85871 1.08262,-0.405853 2.24064,-0.60605 3.47926,-0.60605 0.888665,0 1.69231,0.150278 2.406,0.455773 0.713948,0.305495 1.31896,0.731368 1.81555,1.27736 0.496072,0.546251 0.874366,1.19754 1.13904,1.94893 0.264676,0.751388 0.397014,1.57297 0.397014,2.46476l0 9.73892 -2.01393 0zm-5.04834 -2.84045c0.567311,0 1.06364,-0.105298 1.489,-0.315635 0.425353,-0.210337 0.855646,-0.551191 1.29062,-1.02204l0 -2.1642c-0.879306,0.0400393 -1.60287,0.120378 -2.16992,0.240496 -0.567311,0.120118 -1.01632,0.270396 -1.34704,0.450833 -0.330975,0.180437 -0.557951,0.385834 -0.685609,0.61619 -0.127658,0.230616 -0.193697,0.480992 -0.193697,0.751388 0,0.531171 0.137018,0.901925 0.411053,1.1172 0.274296,0.215536 0.676249,0.325775 1.2056,0.325775z"/>
   <path id="_1696100081234567891011" class="fil1" d="M188.031 158.127c-0.548331,0 -0.907645,-0.260516 -1.07768,-0.781547l-0.340334 -1.1874c-0.293275,0.330715 -0.60033,0.63127 -0.921945,0.901925 -0.321355,0.270396 -0.666369,0.501012 -1.03998,0.696269 -0.373354,0.195517 -0.775307,0.345794 -1.20534,0.450833 -0.430293,0.105298 -0.898285,0.160417 -1.3993,0.160417 -0.765687,0 -1.4747,-0.180437 -2.12703,-0.541051 -0.652589,-0.360614 -1.21496,-0.881646 -1.68763,-1.56309 -0.472932,-0.681189 -0.841606,-1.51786 -1.11096,-2.5048 -0.269616,-0.986944 -0.406633,-2.10909 -0.406633,-3.37162 0,-1.16218 0.151318,-2.24428 0.453693,-3.24137 0.302635,-0.996824 0.732928,-1.85845 1.28594,-2.58488 0.553011,-0.726428 1.2147,-1.29244 1.99001,-1.70323 0.775307,-0.410793 1.63095,-0.61619 2.56694,-0.61619 0.756328,0 1.3993,0.115178 1.92397,0.350474 0.524671,0.235556 0.997344,0.546251 1.42296,0.926885l0 -7.89035 4.39627 0 0 22.4987 -2.72294 0zm-4.45295 -3.33653c0.321615,0 0.61437,-0.0350994 0.874626,-0.100098 0.259996,-0.0652589 0.496072,-0.155477 0.713688,-0.275595 0.217356,-0.120118 0.425613,-0.270396 0.61931,-0.450833 0.193697,-0.180437 0.382714,-0.390774 0.571991,-0.63127l0 -6.61273c-0.340334,-0.390774 -0.699649,-0.666369 -1.08262,-0.821587 -0.382974,-0.155477 -0.789347,-0.230616 -1.2147,-0.230616 -0.406633,0 -0.780247,0.0852786 -1.12058,0.255576 -0.340074,0.170297 -0.63335,0.440953 -0.883986,0.816647 -0.250376,0.375694 -0.449013,0.866566 -0.59097,1.46768 -0.141698,0.60137 -0.212677,1.3278 -0.212677,2.17928 0,0.821587 0.0566791,1.51292 0.170297,2.07399 0.113358,0.561071 0.274036,1.01216 0.477352,1.3577 0.203577,0.345794 0.444333,0.59617 0.727988,0.746448 0.283915,0.150278 0.60033,0.225416 0.950284,0.225416z"/>
   <path id="_169610008123456789101112" class="fil1" d="M203.198 158.127c-0.415733,0 -0.727728,-0.060059 -0.940405,-0.180437 -0.212677,-0.120118 -0.392334,-0.370754 -0.534291,-0.751388l-0.311995 -0.856686c-0.368674,0.330715 -0.723308,0.62113 -1.06364,0.871766 -0.340334,0.250376 -0.690289,0.460972 -1.05402,0.63621 -0.363994,0.175237 -0.751648,0.305495 -1.16296,0.390774 -0.411313,0.0850186 -0.869946,0.130258 -1.3707,0.130258 -0.671309,0 -1.28126,-0.0951584 -1.82959,-0.280535 -0.548331,-0.185377 -1.01164,-0.456033 -1.39436,-0.816647 -0.382974,-0.360614 -0.680929,-0.811447 -0.888925,-1.34756 -0.207997,-0.536111 -0.311995,-1.1523 -0.311995,-1.85351 0,-0.551191 0.132338,-1.1172 0.397014,-1.69855 0.264936,-0.581091 0.723308,-1.112 1.37564,-1.58805 0.652329,-0.475792 1.53163,-0.871506 2.63792,-1.19234 1.10602,-0.320575 2.50064,-0.500752 4.18359,-0.541051l0 -0.661169c0,-0.911805 -0.174977,-1.57297 -0.529611,-1.97883 -0.354634,-0.405853 -0.860326,-0.60631 -1.51266,-0.60631 -0.519992,0 -0.945345,0.060319 -1.27632,0.180437 -0.330975,0.120378 -0.62399,0.255576 -0.883986,0.405853 -0.259996,0.150278 -0.515052,0.285475 -0.761008,0.405853 -0.245696,0.120118 -0.538971,0.180177 -0.879306,0.180177 -0.302635,0 -0.557951,-0.0800787 -0.765947,-0.240496 -0.207997,-0.160157 -0.378034,-0.350474 -0.510372,-0.570951l-0.794287 -1.4578c0.888925,-0.831726 1.87691,-1.45286 2.95927,-1.85871 1.08262,-0.405853 2.24064,-0.60605 3.47926,-0.60605 0.888665,0 1.69231,0.150278 2.406,0.455773 0.713948,0.305495 1.31896,0.731368 1.81555,1.27736 0.496072,0.546251 0.874366,1.19754 1.13904,1.94893 0.264676,0.751388 0.397014,1.57297 0.397014,2.46476l0 9.73892 -2.01393 0zm-5.04834 -2.84045c0.567311,0 1.06364,-0.105298 1.489,-0.315635 0.425353,-0.210337 0.855646,-0.551191 1.29062,-1.02204l0 -2.1642c-0.879306,0.0400393 -1.60287,0.120378 -2.16992,0.240496 -0.567311,0.120118 -1.01632,0.270396 -1.34704,0.450833 -0.330975,0.180437 -0.557951,0.385834 -0.685609,0.61619 -0.127658,0.230616 -0.193697,0.480992 -0.193697,0.751388 0,0.531171 0.137018,0.901925 0.411053,1.1172 0.274296,0.215536 0.676249,0.325775 1.2056,0.325775zm2.42498 -18.005c0.226716,0 0.411313,-0.0652589 0.553011,-0.190317 0.141958,-0.125318 0.212677,-0.390774 0.212677,-0.801567l2.66626 0c0,0.63101 -0.0803387,1.19728 -0.245956,1.70323 -0.165357,0.505952 -0.397014,0.936765 -0.690029,1.29244 -0.293015,0.355674 -0.63829,0.63127 -1.0353,0.821587 -0.397014,0.190317 -0.827306,0.285735 -1.29062,0.285735 -0.349694,0 -0.675729,-0.060319 -0.978624,-0.175497 -0.302375,-0.115178 -0.581351,-0.240496 -0.841086,-0.380634 -0.259996,-0.140398 -0.496592,-0.270656 -0.709268,-0.385834 -0.212677,-0.115178 -0.401693,-0.170297 -0.562631,-0.170297 -0.226716,0 -0.406373,0.0649989 -0.538711,0.200457 -0.132598,0.135198 -0.198377,0.410793 -0.198377,0.821587l-2.6946 0c0,-0.63127 0.0850186,-1.20248 0.255056,-1.70843 0.170297,-0.505952 0.401953,-0.936765 0.694969,-1.29738 0.293015,-0.360874 0.63829,-0.64141 1.0353,-0.836666 0.397014,-0.195517 0.822627,-0.290675 1.27632,-0.290675 0.349954,0 0.680669,0.0551191 0.987984,0.170297 0.307315,0.115178 0.58603,0.245436 0.841606,0.385834 0.255056,0.140138 0.491652,0.265456 0.704328,0.380634 0.212677,0.115438 0.396754,0.175497 0.557691,0.175497z"/>
   <ellipse id="_169610416" class="fil2" cx="120" cy="65.5406" rx="65.5412" ry="65.5406"/>
   <path id="_169610272" class="fil3" d="M120 7.08358c32.2852,0 58.4574,26.172 58.4574,58.4572 0,32.285 -26.1722,58.4569 -58.4574,58.4569 -32.2855,0 -58.4577,-26.172 -58.4577,-58.4569 0,-32.2852 26.1722,-58.4572 58.4577,-58.4572z"/>
   <g style="clip-path:url(#id0)">
    <g>
     <g>
      <path id="_1696091201" class="fil4" d="M117.556 99.9723l-1.86469 19.0764c-0.298995,3.06197 -2.51754,5.59381 -5.59407,5.59381l-37.4368 0c-3.07679,0 -5.34447,-2.52716 -5.59407,-5.59381l-1.57791 -19.3634c-1.63225,-20.035 54.0232,-19.7209 52.0675,0.287035zm-26.8043 -54.3545c9.70408,0 17.5708,7.86669 17.5708,17.5705 0,9.70408 -7.86669,17.5708 -17.5708,17.5708 -9.70434,0 -17.571,-7.86669 -17.571,-17.5708 0,-9.70382 7.86669,-17.5705 17.571,-17.5705z"/>
      <path id="_169609696" class="fil5" d="M154.182 93.5941l-2.34672 24.0083c-0.376214,3.85366 -3.16831,7.04017 -7.04043,7.04017l-26.7619 0c3.26789,0 5.62449,-2.68966 5.9422,-5.94194l1.98065 -20.2638c0.962244,-9.84292 -11.2014,-15.1973 -24.3676,-15.9968 3.61342,-1.56205 6.74793,-4.01979 9.12611,-7.09346 19.6149,-3.22005 44.9657,2.92443 43.4677,18.2475zm-33.7342 -68.4067c12.213,0 22.1137,9.90038 22.1137,22.1134 0,12.2125 -9.90064,22.1132 -22.1137,22.1132 -2.11741,0 -4.16461,-0.298475 -6.1034,-0.853826 0.348394,-1.03998 0.62477,-2.11325 0.822887,-3.21329 0.63543,-1.87795 0.980184,-3.8898 0.980184,-5.9825 0,-6.79941 -3.63526,-12.7481 -9.06865,-16.0108 -2.13379,-1.75185 -4.58711,-3.12931 -7.25908,-4.03123 3.20055,-8.26968 11.2287,-14.1349 20.6281,-14.1349z"/>
      <path id="_169609816" class="fil6" d="M176.051 99.9723l-1.86469 19.0764c-0.298995,3.06197 -2.51754,5.59381 -5.59407,5.59381l-15.8207 0c3.56792,0 6.1411,-2.93639 6.48793,-6.48793l2.16264 -22.1251c0.136238,-1.39436 0.0306795,-2.70578 -0.287295,-3.93452l0.283655 -2.90077c0.105558,-1.07794 0.0678589,-2.10675 -0.0847586,-3.09239 8.76524,2.09167 15.4159,6.72427 14.7173,13.8705zm-26.8043 -54.3545c9.70408,0 17.5708,7.86669 17.5708,17.5705 0,6.79941 -3.86276,12.6961 -9.51272,15.6174 -3.92074,-3.73094 -10.2337,-6.22742 -17.3402,-7.47696 6.39772,-3.43714 10.7482,-10.1911 10.7482,-17.9621 0,-2.74322 -0.543131,-5.35903 -1.52618,-7.74839l0.060059 -0.000519992z"/>
     </g>
    </g>
   </g>
   <path class="fil7 str0" d="M120 7.08358c32.2852,0 58.4574,26.172 58.4574,58.4572 0,32.285 -26.1722,58.4569 -58.4574,58.4569 -32.2855,0 -58.4577,-26.172 -58.4577,-58.4569 0,-32.2852 26.1722,-58.4572 58.4577,-58.4572z"/>
  </g>
 </g>
</svg>
