<?xml version="1.0" encoding="UTF-8"?>
<!DOCTYPE svg PUBLIC "-//W3C//DTD SVG 1.1//EN" "http://www.w3.org/Graphics/SVG/1.1/DTD/svg11.dtd">
<!-- Creator: CorelDRAW -->
<svg xmlns="http://www.w3.org/2000/svg" xml:space="preserve" width="306px" height="41px" style="shape-rendering:geometricPrecision; text-rendering:geometricPrecision; image-rendering:optimizeQuality; fill-rule:evenodd; clip-rule:evenodd"
viewBox="0 0 298.322 40.1091"
 xmlns:xlink="http://www.w3.org/1999/xlink">
 <defs>
  <style type="text/css">
   <![CDATA[
    .str0 {stroke:#B3B3B3;stroke-width:0.599803}
    .fil8 {fill:none}
    .fil0 {fill:#215D2F;fill-rule:nonzero}
    .fil1 {fill:#676767;fill-rule:nonzero}
    .fil7 {fill:url(#id0)}
    .fil3 {fill:url(#id1);fill-rule:nonzero}
    .fil5 {fill:url(#id2);fill-rule:nonzero}
    .fil2 {fill:url(#id3);fill-rule:nonzero}
    .fil6 {fill:url(#id4);fill-rule:nonzero}
    .fil4 {fill:url(#id5);fill-rule:nonzero}
    .fil36 {fill:url(#id6);fill-rule:nonzero}
    .fil15 {fill:url(#id7);fill-rule:nonzero}
    .fil27 {fill:url(#id8);fill-rule:nonzero}
    .fil31 {fill:url(#id9);fill-rule:nonzero}
    .fil18 {fill:url(#id10);fill-rule:nonzero}
    .fil16 {fill:url(#id11);fill-rule:nonzero}
    .fil14 {fill:url(#id12);fill-rule:nonzero}
    .fil25 {fill:url(#id13);fill-rule:nonzero}
    .fil20 {fill:url(#id14);fill-rule:nonzero}
    .fil35 {fill:url(#id15);fill-rule:nonzero}
    .fil21 {fill:url(#id16);fill-rule:nonzero}
    .fil29 {fill:url(#id17);fill-rule:nonzero}
    .fil32 {fill:url(#id18);fill-rule:nonzero}
    .fil12 {fill:url(#id19);fill-rule:nonzero}
    .fil19 {fill:url(#id20);fill-rule:nonzero}
    .fil30 {fill:url(#id21);fill-rule:nonzero}
    .fil34 {fill:url(#id22);fill-rule:nonzero}
    .fil33 {fill:url(#id23);fill-rule:nonzero}
    .fil28 {fill:url(#id24);fill-rule:nonzero}
    .fil41 {fill:url(#id25);fill-rule:nonzero}
    .fil40 {fill:url(#id26);fill-rule:nonzero}
    .fil26 {fill:url(#id27);fill-rule:nonzero}
    .fil38 {fill:url(#id28);fill-rule:nonzero}
    .fil10 {fill:url(#id29);fill-rule:nonzero}
    .fil11 {fill:url(#id30);fill-rule:nonzero}
    .fil17 {fill:url(#id31);fill-rule:nonzero}
    .fil39 {fill:url(#id32);fill-rule:nonzero}
    .fil13 {fill:url(#id33);fill-rule:nonzero}
    .fil37 {fill:url(#id34);fill-rule:nonzero}
    .fil9 {fill:url(#id35);fill-rule:nonzero}
    .fil23 {fill:url(#id36);fill-rule:nonzero}
    .fil22 {fill:url(#id37);fill-rule:nonzero}
    .fil24 {fill:url(#id38);fill-rule:nonzero}
   ]]>
  </style>
  <linearGradient id="id0" gradientUnits="userSpaceOnUse" x1="76.9908" y1="14.3257" x2="76.9908" y2="8.19571">
   <stop offset="0" style="stop-color:#5B853B"/>
   <stop offset="1" style="stop-color:#72AA42"/>
  </linearGradient>
  <linearGradient id="id1" gradientUnits="userSpaceOnUse" x1="115.491" y1="35.1079" x2="115.491" y2="8.15925">
   <stop offset="0" style="stop-color:#28743A"/>
   <stop offset="1" style="stop-color:#4B9042"/>
  </linearGradient>
  <linearGradient id="id2" gradientUnits="userSpaceOnUse" xlink:href="#id0" x1="61.5254" y1="35.5376" x2="61.5254" y2="7.73051">
  </linearGradient>
  <linearGradient id="id3" gradientUnits="userSpaceOnUse" xlink:href="#id0" x1="76.8881" y1="35.1933" x2="76.8881" y2="16.6023">
  </linearGradient>
  <linearGradient id="id4" gradientUnits="userSpaceOnUse" xlink:href="#id0" x1="93.7255" y1="35.1079" x2="93.7255" y2="8.15925">
  </linearGradient>
  <linearGradient id="id5" gradientUnits="userSpaceOnUse" xlink:href="#id1" x1="133.04" y1="34.9947" x2="133.04" y2="16.3629">
  </linearGradient>
  <radialGradient id="id6" gradientUnits="userSpaceOnUse" cx="24.0219" cy="19.5956" r="5.01891" fx="24.0219" fy="19.5956">
   <stop offset="0" style="stop-color:#281111"/>
   <stop offset="0.839216" style="stop-color:#2D317B"/>
   <stop offset="1" style="stop-color:#2D367D"/>
  </radialGradient>
  <radialGradient id="id7" gradientUnits="userSpaceOnUse" cx="23.7357" cy="20.6759" r="19.2966" fx="23.7357" fy="20.6759">
   <stop offset="0" style="stop-color:#214B23"/>
   <stop offset="0.509804" style="stop-color:#4B9042"/>
   <stop offset="1" style="stop-color:#7EB542"/>
  </radialGradient>
  <radialGradient id="id8" gradientUnits="userSpaceOnUse" xlink:href="#id7" cx="24.4204" cy="22.7465" r="11.8931" fx="24.4204" fy="22.7465">
  </radialGradient>
  <radialGradient id="id9" gradientUnits="userSpaceOnUse" cx="22.8067" cy="20.0848" r="10.4056" fx="22.8067" fy="20.0848">
   <stop offset="0" style="stop-color:#483418"/>
   <stop offset="0.219608" style="stop-color:#9E901D"/>
   <stop offset="0.568627" style="stop-color:#F4EB21"/>
   <stop offset="0.768627" style="stop-color:#F4EB21"/>
   <stop offset="1" style="stop-color:#F9CA15"/>
  </radialGradient>
  <radialGradient id="id10" gradientUnits="userSpaceOnUse" xlink:href="#id7" cx="23.2522" cy="22.4454" r="16.4874" fx="23.2522" fy="22.4454">
  </radialGradient>
  <radialGradient id="id11" gradientUnits="userSpaceOnUse" xlink:href="#id7" cx="24.774" cy="19.6383" r="16.1239" fx="24.774" fy="19.6383">
  </radialGradient>
  <radialGradient id="id12" gradientUnits="userSpaceOnUse" xlink:href="#id7" cx="23.1937" cy="22.1179" r="16.7801" fx="23.1937" fy="22.1179">
  </radialGradient>
  <radialGradient id="id13" gradientUnits="userSpaceOnUse" xlink:href="#id7" cx="25.3129" cy="20.6671" r="10.7019" fx="25.3129" fy="20.6671">
  </radialGradient>
  <radialGradient id="id14" gradientUnits="userSpaceOnUse" xlink:href="#id7" cx="23.1095" cy="20.5375" r="13.9776" fx="23.1095" fy="20.5375">
  </radialGradient>
  <radialGradient id="id15" gradientUnits="userSpaceOnUse" xlink:href="#id9" cx="25.698" cy="21.7978" r="10.3896" fx="25.698" fy="21.7978">
  </radialGradient>
  <radialGradient id="id16" gradientUnits="userSpaceOnUse" xlink:href="#id7" cx="24.7138" cy="19.8583" r="16.7976" fx="24.7138" fy="19.8583">
  </radialGradient>
  <radialGradient id="id17" gradientUnits="userSpaceOnUse" xlink:href="#id9" cx="23.2772" cy="19.8089" r="10.2137" fx="23.2772" fy="19.8089">
  </radialGradient>
  <radialGradient id="id18" gradientUnits="userSpaceOnUse" xlink:href="#id9" cx="24.5996" cy="22.6894" r="10.2185" fx="24.5996" fy="22.6894">
  </radialGradient>
  <radialGradient id="id19" gradientUnits="userSpaceOnUse" xlink:href="#id7" cx="22.6143" cy="19.8856" r="15.0927" fx="22.6143" fy="19.8856">
  </radialGradient>
  <radialGradient id="id20" gradientUnits="userSpaceOnUse" xlink:href="#id7" cx="22.8314" cy="22.3014" r="13.5596" fx="22.8314" fy="22.3014">
  </radialGradient>
  <radialGradient id="id21" gradientUnits="userSpaceOnUse" xlink:href="#id9" cx="23.1894" cy="20.5817" r="8.44835" fx="23.1894" fy="20.5817">
  </radialGradient>
  <radialGradient id="id22" gradientUnits="userSpaceOnUse" xlink:href="#id9" cx="24.6913" cy="19.3871" r="6.12519" fx="24.6913" fy="19.3871">
  </radialGradient>
  <radialGradient id="id23" gradientUnits="userSpaceOnUse" xlink:href="#id9" cx="24.6594" cy="21.9161" r="8.43084" fx="24.6594" fy="21.9161">
  </radialGradient>
  <radialGradient id="id24" gradientUnits="userSpaceOnUse" xlink:href="#id9" cx="22.9921" cy="20.5625" r="9.32022" fx="22.9921" fy="20.5625">
  </radialGradient>
  <radialGradient id="id25" gradientUnits="userSpaceOnUse" cx="25.6025" cy="19.0689" r="4.3812" fx="25.6025" fy="19.0689">
   <stop offset="0" style="stop-color:#281111"/>
   <stop offset="0.188235" style="stop-color:#292346"/>
   <stop offset="0.529412" style="stop-color:#2A347B"/>
   <stop offset="1" style="stop-color:#314987"/>
  </radialGradient>
  <radialGradient id="id26" gradientUnits="userSpaceOnUse" xlink:href="#id25" cx="24.1692" cy="18.2239" r="4.11561" fx="24.1692" fy="18.2239">
  </radialGradient>
  <radialGradient id="id27" gradientUnits="userSpaceOnUse" xlink:href="#id7" cx="23.0665" cy="20.5317" r="8.10958" fx="23.0665" fy="20.5317">
  </radialGradient>
  <radialGradient id="id28" gradientUnits="userSpaceOnUse" xlink:href="#id25" cx="23.3489" cy="21.633" r="3.7243" fx="23.3489" fy="21.633">
  </radialGradient>
  <radialGradient id="id29" gradientUnits="userSpaceOnUse" xlink:href="#id7" cx="26.5435" cy="13.4351" r="14.0188" fx="26.5435" fy="13.4351">
  </radialGradient>
  <radialGradient id="id30" gradientUnits="userSpaceOnUse" xlink:href="#id7" cx="22.5884" cy="28.8712" r="13.5937" fx="22.5884" fy="28.8712">
  </radialGradient>
  <radialGradient id="id31" gradientUnits="userSpaceOnUse" xlink:href="#id7" cx="22.9921" cy="20.5625" r="7.10119" fx="22.9921" fy="20.5625">
  </radialGradient>
  <radialGradient id="id32" gradientUnits="userSpaceOnUse" xlink:href="#id25" cx="23.55" cy="20.5773" r="3.47766" fx="23.55" fy="20.5773">
  </radialGradient>
  <radialGradient id="id33" gradientUnits="userSpaceOnUse" xlink:href="#id7" cx="22.1366" cy="11.5153" r="13.0534" fx="22.1366" fy="11.5153">
  </radialGradient>
  <radialGradient id="id34" gradientUnits="userSpaceOnUse" xlink:href="#id25" cx="24.1152" cy="21.8151" r="3.59402" fx="24.1152" fy="21.8151">
  </radialGradient>
  <radialGradient id="id35" gradientUnits="userSpaceOnUse" xlink:href="#id7" cx="26.9964" cy="30.7901" r="12.6321" fx="26.9964" fy="30.7901">
  </radialGradient>
  <radialGradient id="id36" gradientUnits="userSpaceOnUse" xlink:href="#id7" cx="26.5367" cy="21.1016" r="8.46011" fx="26.5367" fy="21.1016">
  </radialGradient>
  <radialGradient id="id37" gradientUnits="userSpaceOnUse" xlink:href="#id7" cx="25.5962" cy="17.2974" r="5.39319" fx="25.5962" fy="17.2974">
  </radialGradient>
  <radialGradient id="id38" gradientUnits="userSpaceOnUse" xlink:href="#id7" cx="27.4089" cy="24.5111" r="6.62663" fx="27.4089" fy="24.5111">
  </radialGradient>
 </defs>
 <g id="Camada_x0020_1">
  <metadata id="CorelCorpID_0Corel-Layer"/>
  <g id="_545375416">
   <g>
    <g>
     <path id="_536593888" class="fil0" d="M155.662 27.442l2.74062 0c0.632193,0 1.13675,0.174903 1.51462,0.525668 0.377876,0.350045 0.566454,0.786222 0.566454,1.30853 0,0.418903 -0.0993274,0.771347 -0.298222,1.05589 -0.199615,0.285266 -0.51919,0.503595 -0.958726,0.654745l0.0103166 0.0201534c0.42586,0.103406 0.771347,0.326533 1.03574,0.67034 0.264153,0.343088 0.39659,0.744956 0.39659,1.20488 0,0.288865 -0.0479843,0.553019 -0.144193,0.7939 -0.0964484,0.240161 -0.250958,0.451532 -0.463768,0.633152 -0.21281,0.18282 -0.492798,0.323174 -0.839485,0.422741 -0.347166,0.0998073 -0.764389,0.149231 -1.25191,0.149231l-2.30804 0 0 -7.43924zm0.82413 3.19407l0 0 1.44241 0c0.583729,0 1.01823,-0.12332 1.30373,-0.371398 0.284307,-0.246639 0.42754,-0.545581 0.42754,-0.895626 0,-0.817892 -0.467127,-1.22672 -1.40138,-1.22672l-1.7723 0 0 2.49374zm0 3.54484l0 0 1.54509 0c1.20944,0 1.81381,-0.446254 1.81381,-1.33924 0,-0.474085 -0.175143,-0.843324 -0.525428,-1.1082 -0.350045,-0.264633 -0.821251,-0.39707 -1.4117,-0.39707l-1.42177 0 0 2.84451z"/>
     <polygon id="_536593792" class="fil0" points="163.545,27.442 163.545,34.8812 162.72,34.8812 162.72,27.442 "/>
     <path id="_536594032" class="fil0" d="M166.141 28.328c0.508153,-0.659784 1.22264,-0.989676 2.14322,-0.989676 0.920578,0 1.63458,0.329892 2.14322,0.989676 0.508153,0.659784 0.76247,1.60387 0.76247,2.83371 0,1.2296 -0.254317,2.17369 -0.76247,2.83347 -0.508633,0.660024 -1.22264,0.989676 -2.14322,0.989676 -0.920578,0 -1.63506,-0.329652 -2.14322,-0.989676 -0.508633,-0.659784 -0.76247,-1.60387 -0.76247,-2.83347 0,-1.22984 0.253837,-2.17393 0.76247,-2.83371zm0.602442 5.17246l0 0c0.361082,0.522549 0.874033,0.783103 1.54077,0.783103 0.666262,0 1.17969,-0.260555 1.5403,-0.783103 0.360842,-0.521589 0.541023,-1.30181 0.541023,-2.33875 0,-1.03718 -0.180181,-1.8174 -0.541023,-2.33875 -0.360602,-0.522549 -0.874033,-0.783343 -1.5403,-0.783343 -0.666741,0 -1.17969,0.260795 -1.54077,0.783343 -0.360362,0.521349 -0.540783,1.30157 -0.540783,2.33875 0,1.03694 0.180421,1.81716 0.540783,2.33875z"/>
     <path id="_536594152" class="fil0" d="M172.756 27.442l1.9995 0c1.03022,0 1.84739,0.321255 2.45248,0.963044 0.603882,0.642989 0.906423,1.56165 0.906423,2.7567 0,1.11995 -0.295583,2.01966 -0.886269,2.69959 -0.591166,0.680177 -1.42873,1.01991 -2.51414,1.01991l-1.958 0 0 -7.43924zm0.82413 6.73891l0 0 1.11324 0c1.73127,0 2.59643,-1.00647 2.59643,-3.01917 0,-1.04414 -0.225046,-1.80853 -0.674419,-2.29245 -0.450572,-0.484881 -1.07725,-0.726962 -1.88074,-0.726962l-1.1545 0 0 6.03858z"/>
     <polygon id="_536594104" class="fil0" points="180.721,27.442 180.721,34.8812 179.897,34.8812 179.897,27.442 "/>
     <polygon id="_539696280" class="fil0" points="182.216,27.442 183.04,27.442 184.874,33.542 184.895,33.542 186.739,27.442 187.574,27.442 185.266,34.8812 184.514,34.8812 "/>
     <polygon id="_539696232" class="fil0" points="193.334,27.442 193.334,28.1423 189.696,28.1423 189.696,30.636 192.283,30.636 192.283,31.3364 189.696,31.3364 189.696,34.1809 193.54,34.1809 193.54,34.8812 188.872,34.8812 188.872,27.442 "/>
     <path id="_539696304" class="fil0" d="M195.086 34.8812l0 -7.43924 2.39058 0c0.797019,0 1.41002,0.169864 1.83924,0.509833 0.429459,0.340208 0.643709,0.82269 0.643709,1.44793 0,0.501676 -0.130277,0.911461 -0.391072,1.23152 -0.261274,0.319095 -0.625235,0.554698 -1.09236,0.705129l1.57652 3.54484 -0.896346 0 -1.50503 -3.37977 -1.74111 0 0 3.37977 -0.82413 0zm0.82413 -4.0801l0 0 1.49447 0c0.576771,0 1.00935,-0.111563 1.29821,-0.33493 0.288385,-0.223127 0.432578,-0.564775 0.432578,-1.02518 0,-0.473845 -0.147552,-0.808775 -0.442895,-1.00479 -0.295343,-0.196016 -0.727921,-0.293904 -1.29821,-0.293904l-1.48415 0 0 2.65881z"/>
     <path id="_539696376" class="fil0" d="M205.544 29.3373c-0.0966883,-0.377156 -0.293904,-0.688334 -0.592606,-0.932334 -0.298942,-0.24376 -0.678498,-0.3654 -1.13891,-0.3654 -0.432578,0 -0.771347,0.0998073 -1.01463,0.298702 -0.244,0.199135 -0.369479,0.484641 -0.376437,0.85484 0,0.178741 0.0463048,0.33685 0.139154,0.474085 0.0930895,0.137715 0.221927,0.257676 0.386753,0.360602 0.164586,0.103646 0.337809,0.194576 0.51991,0.27351 0.18234,0.079174 0.431379,0.176822 0.747355,0.293424 0.377636,0.144193 0.691693,0.271591 0.942651,0.381235 0.250478,0.110604 0.48728,0.247839 0.711127,0.412905 0.223127,0.164346 0.401388,0.363241 0.535744,0.597404 0.133876,0.232964 0.200574,0.504795 0.200574,0.813813 0,0.288385 -0.0424661,0.561656 -0.128358,0.818852 -0.0858918,0.257676 -0.226726,0.489919 -0.422741,0.695772 -0.195536,0.206092 -0.454891,0.369479 -0.777825,0.48944 -0.322934,0.120441 -0.714486,0.180661 -1.17489,0.180661 -0.384594,0 -0.724802,-0.0573412 -1.02015,-0.170344 -0.295343,-0.113243 -0.544142,-0.262714 -0.746635,-0.447933 -0.202494,-0.185699 -0.372838,-0.386753 -0.510073,-0.603402 -0.137955,-0.216169 -0.264393,-0.454411 -0.381475,-0.716165l0.752153 -0.267512c0.172024,0.446254 0.413864,0.808775 0.726482,1.08732 0.312618,0.277589 0.719524,0.416743 1.2212,0.416743 0.529027,0 0.934494,-0.12332 1.21592,-0.370199 0.281428,-0.248079 0.422741,-0.571013 0.422741,-0.969042 0,-0.21281 -0.0503835,-0.399949 -0.149711,-0.561896 -0.0998073,-0.160987 -0.238482,-0.303261 -0.417223,-0.42754 -0.178741,-0.123559 -0.367559,-0.228405 -0.566934,-0.314297 -0.199615,-0.0858918 -0.463288,-0.186659 -0.79318,-0.30422 -0.364441,-0.137235 -0.664582,-0.258635 -0.901624,-0.3654 -0.237042,-0.106525 -0.45825,-0.235123 -0.664822,-0.386033 -0.205853,-0.15115 -0.372838,-0.33685 -0.499756,-0.557097 -0.127398,-0.219288 -0.190498,-0.477204 -0.190498,-0.772307 0,-0.267752 0.0532625,-0.51847 0.160028,-0.752633 0.106045,-0.233204 0.258635,-0.437617 0.45825,-0.612519 0.198895,-0.175622 0.435937,-0.310938 0.711127,-0.407386 0.27447,-0.0962085 0.576771,-0.144673 0.906663,-0.144673 0.590446,0 1.09932,0.155229 1.52494,0.464248 0.42562,0.309259 0.734879,0.765829 0.927296,1.37043l-0.741597 0.164346z"/>
     <polygon id="_539696136" class="fil0" points="209.346,27.442 209.346,34.8812 208.522,34.8812 208.522,27.442 "/>
     <path id="_539696112" class="fil0" d="M211.685 27.442l1.9995 0c1.03022,0 1.84739,0.321255 2.45248,0.963044 0.603882,0.642989 0.906423,1.56165 0.906423,2.7567 0,1.11995 -0.295583,2.01966 -0.886269,2.69959 -0.591166,0.680177 -1.42873,1.01991 -2.51414,1.01991l-1.958 0 0 -7.43924zm0.82437 6.73891l0 0 1.113 0c1.73127,0 2.59643,-1.00647 2.59643,-3.01917 0,-1.04414 -0.225046,-1.80853 -0.674419,-2.29245 -0.450572,-0.484881 -1.07725,-0.726962 -1.8805,-0.726962l-1.1545 0 0 6.03858z"/>
     <path id="_539696064" class="fil0" d="M217.775 34.8812l2.28741 -7.43924 1.22624 0 2.28741 7.43924 -0.865156 0 -0.70081 -2.32844 -2.66912 0 -0.70033 2.32844 -0.865636 0zm1.7723 -3.02925l0 0 2.25694 0 -1.07221 -3.83322 -0.113003 0 -1.07173 3.83322z"/>
     <path id="_539695704" class="fil0" d="M224.854 27.442l1.99902 0c1.03022,0 1.84739,0.321255 2.45248,0.963044 0.604362,0.642989 0.906663,1.56165 0.906663,2.7567 0,1.11995 -0.295343,2.01966 -0.886509,2.69959 -0.590686,0.680177 -1.42873,1.01991 -2.51414,1.01991l-1.95752 0 0 -7.43924zm0.82413 6.73891l0 0 1.11252 0c1.73151,0 2.59667,-1.00647 2.59667,-3.01917 0,-1.04414 -0.225046,-1.80853 -0.674419,-2.29245 -0.450572,-0.484881 -1.07653,-0.726962 -1.8805,-0.726962l-1.15426 0 0 6.03858z"/>
     <polygon id="_539695608" class="fil0" points="236.271,27.442 236.271,28.1423 232.634,28.1423 232.634,30.636 235.22,30.636 235.22,31.3364 232.634,31.3364 232.634,34.1809 236.477,34.1809 236.477,34.8812 231.809,34.8812 231.809,27.442 "/>
     <path id="_539695536" class="fil0" d="M241.248 27.442l2.7411 0c0.631713,0 1.13699,0.174903 1.51462,0.525668 0.377876,0.350045 0.566934,0.786222 0.566934,1.30853 0,0.418903 -0.0998073,0.771347 -0.299182,1.05589 -0.199135,0.285266 -0.51847,0.503595 -0.958006,0.654745l0.0103166 0.0201534c0.42562,0.103406 0.770867,0.326533 1.03574,0.67034 0.264153,0.343088 0.39635,0.744956 0.39635,1.20488 0,0.288865 -0.0477443,0.553019 -0.144193,0.7939 -0.0962085,0.240161 -0.250718,0.451532 -0.463768,0.633152 -0.21281,0.18282 -0.492798,0.323174 -0.839245,0.422741 -0.347406,0.0998073 -0.764629,0.149231 -1.25239,0.149231l-2.30828 0 0 -7.43924zm0.82461 3.19407l0 0 1.44265 0c0.583729,0 1.01823,-0.12332 1.30301,-0.371398 0.285506,-0.246639 0.42778,-0.545581 0.42778,-0.895626 0,-0.817892 -0.467127,-1.22672 -1.40138,-1.22672l-1.77206 0 0 2.49374zm0 3.54484l0 0 1.54581 0c1.20896,0 1.81333,-0.446254 1.81333,-1.33924 0,-0.474085 -0.174903,-0.843324 -0.525428,-1.1082 -0.350525,-0.264633 -0.820771,-0.39707 -1.41194,-0.39707l-1.42177 0 0 2.84451z"/>
     <path id="_539695968" class="fil0" d="M248.038 34.8812l0 -7.43924 2.39058 0c0.796539,0 1.40954,0.169864 1.839,0.509833 0.429699,0.340208 0.643949,0.82269 0.643949,1.44793 0,0.501676 -0.130277,0.911461 -0.391552,1.23152 -0.261274,0.319095 -0.624515,0.554698 -1.09188,0.705129l1.57628 3.54484 -0.896346 0 -1.50455 -3.37977 -1.74135 0 0 3.37977 -0.82413 0zm0.82413 -4.0801l0 0 1.49447 0c0.576531,0 1.00911,-0.111563 1.29773,-0.33493 0.288865,-0.223127 0.433058,-0.564775 0.433058,-1.02518 0,-0.473845 -0.147552,-0.808775 -0.443135,-1.00479 -0.295103,-0.196016 -0.728161,-0.293904 -1.29821,-0.293904l-1.48391 0 0 2.65881z"/>
     <path id="_539695920" class="fil0" d="M254.128 34.8812l2.28741 -7.43924 1.22672 0 2.28741 7.43924 -0.865636 0 -0.70081 -2.32844 -2.66865 0 -0.70081 2.32844 -0.865636 0zm1.7723 -3.02925l0 0 2.25694 0 -1.07173 -3.83322 -0.113483 0 -1.07173 3.83322z"/>
     <path id="_539695752" class="fil0" d="M264.793 29.3373c-0.0962085,-0.377156 -0.293424,-0.688334 -0.592606,-0.932334 -0.298702,-0.24376 -0.678498,-0.3654 -1.13867,-0.3654 -0.432578,0 -0.771107,0.0998073 -1.01439,0.298702 -0.244,0.199135 -0.369479,0.484641 -0.376197,0.85484 0,0.178741 0.0463048,0.33685 0.139154,0.474085 0.0923697,0.137715 0.221207,0.257676 0.386033,0.360602 0.165066,0.103646 0.338289,0.194576 0.520629,0.27351 0.18162,0.079174 0.430659,0.176822 0.746635,0.293424 0.378356,0.144193 0.692413,0.271591 0.943371,0.381235 0.250718,0.110604 0.48728,0.247839 0.711127,0.412905 0.222647,0.164346 0.401388,0.363241 0.535265,0.597404 0.134356,0.232964 0.201534,0.504795 0.201534,0.813813 0,0.288385 -0.0434258,0.561656 -0.129558,0.818852 -0.0858918,0.257676 -0.226246,0.489919 -0.422262,0.695772 -0.196016,0.206092 -0.455131,0.369479 -0.777825,0.48944 -0.322934,0.120441 -0.714486,0.180661 -1.17465,0.180661 -0.384594,0 -0.725042,-0.0573412 -1.02039,-0.170344 -0.295103,-0.113243 -0.544621,-0.262714 -0.747115,-0.447933 -0.202494,-0.185699 -0.372358,-0.386753 -0.509593,-0.603402 -0.137715,-0.216169 -0.264633,-0.454411 -0.381235,-0.716165l0.751913 -0.267512c0.171544,0.446254 0.414104,0.808775 0.726482,1.08732 0.312138,0.277589 0.719764,0.416743 1.22072,0.416743 0.529506,0 0.934494,-0.12332 1.21592,-0.370199 0.281908,-0.248079 0.422741,-0.571013 0.422741,-0.969042 0,-0.21281 -0.0499036,-0.399949 -0.148991,-0.561896 -0.0998073,-0.160987 -0.238962,-0.303261 -0.417943,-0.42754 -0.178262,-0.123559 -0.36732,-0.228405 -0.566454,-0.314297 -0.199375,-0.0858918 -0.463528,-0.186659 -0.79342,-0.30422 -0.364441,-0.137235 -0.664822,-0.258635 -0.901864,-0.3654 -0.237042,-0.106525 -0.45825,-0.235123 -0.664582,-0.386033 -0.206092,-0.15115 -0.372358,-0.33685 -0.499996,-0.557097 -0.126678,-0.219288 -0.190498,-0.477204 -0.190498,-0.772307 0,-0.267752 0.0535025,-0.51847 0.160028,-0.752633 0.106765,-0.233204 0.259115,-0.437617 0.45825,-0.612519 0.199615,-0.175622 0.436657,-0.310938 0.711127,-0.407386 0.27447,-0.0962085 0.576771,-0.144673 0.906663,-0.144673 0.590686,0 1.09932,0.155229 1.52494,0.464248 0.4261,0.309259 0.735359,0.765829 0.927536,1.37043l-0.741837 0.164346z"/>
     <polygon id="_539695584" class="fil0" points="268.595,27.442 268.595,34.8812 267.77,34.8812 267.77,27.442 "/>
     <polygon id="_539695344" class="fil0" points="271.016,34.8812 271.016,27.442 271.84,27.442 271.84,34.1809 275.364,34.1809 275.364,34.8812 "/>
     <polygon id="_539695296" class="fil0" points="281.207,27.442 281.207,28.1423 277.57,28.1423 277.57,30.636 280.156,30.636 280.156,31.3364 277.57,31.3364 277.57,34.1809 281.413,34.1809 281.413,34.8812 276.745,34.8812 276.745,27.442 "/>
     <polygon id="_539695416" class="fil0" points="284.051,27.442 284.051,34.8812 283.226,34.8812 283.226,27.442 "/>
     <path id="_539694864" class="fil0" d="M286.39 34.8812l0 -7.43924 2.39058 0c0.796539,0 1.40978,0.169864 1.83948,0.509833 0.429219,0.340208 0.643949,0.82269 0.643949,1.44793 0,0.501676 -0.130277,0.911461 -0.392031,1.23152 -0.260795,0.319095 -0.624755,0.554698 -1.09188,0.705129l1.57676 3.54484 -0.896826 0 -1.50431 -3.37977 -1.74111 0 0 3.37977 -0.82461 0zm0.82461 -4.0801l0 0 1.49375 0c0.577251,0 1.00983,-0.111563 1.29821,-0.33493 0.288625,-0.223127 0.432818,-0.564775 0.432818,-1.02518 0,-0.473845 -0.147792,-0.808775 -0.443135,-1.00479 -0.295103,-0.196016 -0.728161,-0.293904 -1.29821,-0.293904l-1.48343 0 0 2.65881z"/>
     <path id="_539694720" class="fil0" d="M292.48 34.8812l2.28765 -7.43924 1.226 0 2.28765 7.43924 -0.865636 0 -0.70057 -2.32844 -2.66889 0 -0.70081 2.32844 -0.865396 0zm1.77206 -3.02925l0 0 2.2567 0 -1.07149 -3.83322 -0.113723 0 -1.07149 3.83322z"/>
    </g>
    <g>
     <path id="_539694696" class="fil1" d="M158.394 15.9855c-0.0798938,-0.368279 -0.24448,-0.67154 -0.493278,-0.908342 -0.249518,-0.238002 -0.565495,-0.357003 -0.948649,-0.357003 -0.360602,0 -0.64203,0.0969282 -0.845483,0.291025 -0.202973,0.194336 -0.307579,0.472645 -0.313097,0.833247 0,0.174423 0.0386273,0.328212 0.115402,0.462089 0.0777345,0.134116 0.184979,0.250718 0.321974,0.351485 0.137475,0.100287 0.282147,0.189538 0.433778,0.266313 0.15163,0.0767748 0.358922,0.172743 0.622116,0.285986 0.314777,0.141074 0.576531,0.264633 0.785263,0.372118 0.208971,0.106285 0.406427,0.240161 0.592606,0.400909 0.185699,0.160507 0.33421,0.354844 0.446014,0.582289 0.111563,0.227685 0.167465,0.492319 0.167465,0.7939 0,0.280948 -0.0357483,0.546541 -0.107245,0.798458 -0.0717365,0.250718 -0.189058,0.476244 -0.352205,0.677298 -0.162907,0.201054 -0.379316,0.360362 -0.647788,0.477204 -0.269192,0.116602 -0.595245,0.175622 -0.978399,0.175622 -0.320535,0 -0.603882,-0.0554218 -0.849801,-0.165066 -0.246159,-0.111084 -0.453211,-0.256716 -0.622356,-0.436897 -0.168905,-0.181381 -0.309978,-0.376677 -0.424661,-0.588287 -0.114682,-0.210171 -0.220248,-0.442415 -0.317656,-0.697931l0.626914 -0.260555c0.142753,0.435217 0.344527,0.787902 0.604842,1.05901 0.260315,0.271591 0.599084,0.406907 1.01679,0.406907 0.440496,0 0.778305,-0.120201 1.01295,-0.361801 0.234403,-0.240401 0.351965,-0.555178 0.351965,-0.943611 0,-0.207292 -0.0412665,-0.389872 -0.124279,-0.547021 -0.0830128,-0.157148 -0.199135,-0.296543 -0.347886,-0.417223 -0.148991,-0.119961 -0.3059,-0.221927 -0.471925,-0.30614 -0.166026,-0.0832527 -0.386273,-0.18258 -0.660743,-0.295823 -0.303261,-0.134116 -0.554218,-0.253117 -0.751194,-0.357243 -0.197695,-0.102686 -0.381715,-0.228645 -0.553499,-0.375957 -0.171784,-0.147312 -0.310218,-0.327733 -0.416503,-0.542462 -0.106045,-0.21377 -0.158348,-0.464728 -0.158348,-0.752873 0,-0.261274 0.0439056,-0.505754 0.132677,-0.7332 0.088531,-0.227685 0.215929,-0.42634 0.381715,-0.597404 0.166026,-0.171064 0.363721,-0.302781 0.592606,-0.39659 0.228645,-0.0935693 0.480562,-0.140834 0.755272,-0.140834 0.491839,0 0.91506,0.150911 1.27014,0.451772 0.355084,0.301581 0.612279,0.746635 0.772307,1.33588l-0.617797 0.160747z"/>
     <polygon id="_539694816" class="fil1" points="161.561,14.1376 161.561,21.3875 160.874,21.3875 160.874,14.1376 "/>
     <path id="_539695008" class="fil1" d="M166.496 15.9855c-0.0801337,-0.368279 -0.2452,-0.67154 -0.493998,-0.908342 -0.248798,-0.238002 -0.564775,-0.357003 -0.947929,-0.357003 -0.360602,0 -0.64203,0.0969282 -0.845723,0.291025 -0.202734,0.194336 -0.307579,0.472645 -0.313097,0.833247 0,0.174423 0.0386273,0.328212 0.115642,0.462089 0.0774946,0.134116 0.184739,0.250718 0.321974,0.351485 0.137235,0.100287 0.282147,0.189538 0.433778,0.266313 0.15139,0.0767748 0.358922,0.172743 0.622116,0.285986 0.314537,0.141074 0.576291,0.264633 0.785263,0.372118 0.208732,0.106285 0.405947,0.240161 0.592606,0.400909 0.185459,0.160507 0.33421,0.354844 0.445774,0.582289 0.111803,0.227685 0.167465,0.492319 0.167465,0.7939 0,0.280948 -0.0355084,0.546541 -0.107245,0.798458 -0.0714966,0.250718 -0.189058,0.476244 -0.351965,0.677298 -0.162907,0.201054 -0.379316,0.360362 -0.648028,0.477204 -0.269192,0.116602 -0.595005,0.175622 -0.978159,0.175622 -0.320535,0 -0.603882,-0.0554218 -0.850041,-0.165066 -0.245679,-0.111084 -0.453211,-0.256716 -0.622116,-0.436897 -0.168905,-0.181381 -0.310218,-0.376677 -0.424661,-0.588287 -0.114442,-0.210171 -0.220248,-0.442415 -0.317416,-0.697931l0.626435 -0.260555c0.142753,0.435217 0.344767,0.787902 0.604842,1.05901 0.260315,0.271591 0.599084,0.406907 1.01703,0.406907 0.440496,0 0.778065,-0.120201 1.01271,-0.361801 0.234643,-0.240401 0.352205,-0.555178 0.352205,-0.943611 0,-0.207292 -0.0415064,-0.389872 -0.124519,-0.547021 -0.0830128,-0.157148 -0.198895,-0.296543 -0.347646,-0.417223 -0.149231,-0.119961 -0.30614,-0.221927 -0.472165,-0.30614 -0.165786,-0.0832527 -0.386033,-0.18258 -0.660503,-0.295823 -0.303261,-0.134116 -0.554218,-0.253117 -0.751194,-0.357243 -0.197455,-0.102686 -0.381715,-0.228645 -0.553499,-0.375957 -0.172024,-0.147312 -0.310218,-0.327733 -0.416503,-0.542462 -0.106045,-0.21377 -0.158348,-0.464728 -0.158348,-0.752873 0,-0.261274 0.0439056,-0.505754 0.132916,-0.7332 0.0882911,-0.227685 0.215689,-0.42634 0.381715,-0.597404 0.165786,-0.171064 0.363241,-0.302781 0.592606,-0.39659 0.228405,-0.0935693 0.479843,-0.140834 0.754793,-0.140834 0.491839,0 0.9153,0.150911 1.27014,0.451772 0.354844,0.301581 0.612519,0.746635 0.772547,1.33588l-0.617797 0.160747z"/>
     <polygon id="_539694792" class="fil1" points="170.624,14.8204 170.624,21.3875 169.937,21.3875 169.937,14.8204 168.084,14.8204 168.084,14.1376 172.478,14.1376 172.478,14.8204 "/>
     <polygon id="_539694528" class="fil1" points="177.31,14.1376 177.31,14.8204 174.28,14.8204 174.28,17.2506 176.434,17.2506 176.434,17.9336 174.28,17.9336 174.28,20.7047 177.482,20.7047 177.482,21.3875 173.593,21.3875 173.593,14.1376 "/>
     <polygon id="_539695272" class="fil1" points="183.515,21.3875 183.515,14.7604 183.489,14.7604 181.756,21.3875 181.224,21.3875 179.481,14.7604 179.455,14.7604 179.455,21.3875 178.837,21.3875 178.837,14.1376 179.902,14.1376 181.481,20.002 181.498,20.002 183.051,14.1376 184.133,14.1376 184.133,21.3875 "/>
     <path id="_539694912" class="fil1" d="M185.266 21.3875l1.90522 -7.24994 1.02159 0 1.90546 7.24994 -0.720964 0 -0.583729 -2.26942 -2.22287 0 -0.583729 2.26942 -0.720964 0zm1.47648 -2.95247l0 0 1.87954 0 -0.892747 -3.73462 -0.0942891 0 -0.892507 3.73462z"/>
     <path id="_539694984" class="fil1" d="M193.779 14.1376l1.66505 0c0.858199,0 1.53934,0.313097 2.04269,0.939532 0.503595,0.625235 0.755512,1.52062 0.755512,2.68544 0,1.0914 -0.246159,1.96807 -0.738478,2.63122 -0.492079,0.662183 -1.19001,0.993754 -2.09427,0.993754l-1.63051 0 0 -7.24994zm0.686895 6.56713l0 0 0.926816 0c1.44193,0 2.16289,-0.980079 2.16289,-2.94216 0,-1.01751 -0.187618,-1.76222 -0.562376,-2.23367 -0.374757,-0.472645 -0.896826,-0.708488 -1.56645,-0.708488l-0.960885 0 0 5.88431z"/>
     <polygon id="_536914848" class="fil1" points="203.289,14.1376 203.289,14.8204 200.259,14.8204 200.259,17.2506 202.413,17.2506 202.413,17.9336 200.259,17.9336 200.259,20.7047 203.46,20.7047 203.46,21.3875 199.573,21.3875 199.573,14.1376 "/>
     <polygon id="_536914008" class="fil1" points="208.275,14.1376 208.275,21.3875 207.589,21.3875 207.589,14.1376 "/>
     <polygon id="_536913936" class="fil1" points="210.292,21.3875 210.292,14.1376 211.279,14.1376 213.982,19.7213 214.017,19.7213 214.017,14.1376 214.635,14.1376 214.635,21.3875 214.069,21.3875 210.927,14.9212 210.91,14.9212 210.91,21.3875 "/>
     <polygon id="_536913744" class="fil1" points="220.093,14.1376 220.093,14.8204 217.107,14.8204 217.107,17.2506 219.321,17.2506 219.321,17.9336 217.107,17.9336 217.107,21.3875 216.42,21.3875 216.42,14.1376 "/>
     <path id="_536914296" class="fil1" d="M221.406 15.0013c0.423701,-0.642989 1.01823,-0.964244 1.78501,-0.964244 0.767029,0 1.36179,0.321255 1.78525,0.964244 0.423461,0.642509 0.635312,1.56309 0.635312,2.76125 0,1.19841 -0.211851,2.11923 -0.635312,2.76173 -0.423461,0.642509 -1.01823,0.963764 -1.78525,0.963764 -0.766789,0 -1.36131,-0.321255 -1.78501,-0.963764 -0.423701,-0.642509 -0.635072,-1.56333 -0.635072,-2.76173 0,-1.19817 0.211371,-2.11875 0.635072,-2.76125zm0.502155 5.04123l0 0c0.300382,0.508393 0.727921,0.76271 1.28286,0.76271 0.554698,0 0.982958,-0.254317 1.2831,-0.76271 0.300861,-0.508633 0.450812,-1.2687 0.450812,-2.27997 0,-1.01103 -0.149951,-1.77038 -0.450812,-2.27877 -0.300142,-0.509593 -0.728401,-0.76367 -1.2831,-0.76367 -0.554938,0 -0.982478,0.254077 -1.28286,0.76367 -0.300621,0.508393 -0.450812,1.26774 -0.450812,2.27877 0,1.01127 0.150191,1.77134 0.450812,2.27997z"/>
     <path id="_536914392" class="fil1" d="M226.917 21.3875l0 -7.24994 1.99087 0c0.663862,0 1.17441,0.165786 1.53214,0.496877 0.357483,0.331571 0.536224,0.802057 0.536224,1.41098 0,0.48872 -0.108684,0.888669 -0.325813,1.20057 -0.218089,0.310938 -0.521109,0.540303 -0.909782,0.687615l1.31261 3.45391 -0.746635 0 -1.25287 -3.2934 -1.45056 0 0 3.2934 -0.686175 0zm0.686175 -3.97622l0 0 1.24471 0c0.480323,0 0.840924,-0.108684 1.08133,-0.326533 0.240161,-0.217849 0.360602,-0.550619 0.360602,-0.999032 0,-0.462089 -0.123559,-0.787902 -0.369479,-0.978639 -0.245919,-0.190737 -0.606521,-0.286706 -1.08157,-0.286706l-1.23559 0 0 2.59091z"/>
     <polygon id="_536914320" class="fil1" points="237.387,21.3875 237.387,14.7604 237.361,14.7604 235.628,21.3875 235.095,21.3875 233.353,14.7604 233.328,14.7604 233.328,21.3875 232.709,21.3875 232.709,14.1376 233.774,14.1376 235.353,20.002 235.37,20.002 236.924,14.1376 238.005,14.1376 238.005,21.3875 "/>
     <path id="_536914488" class="fil1" d="M239.138 21.3875l1.90522 -7.24994 1.02135 0 1.90498 7.24994 -0.720964 0 -0.583729 -2.26942 -2.22263 0 -0.583249 2.26942 -0.720964 0zm1.476 -2.95247l0 0 1.87954 0 -0.892267 -3.73462 -0.0947689 0 -0.892507 3.73462z"/>
     <path id="_536914128" class="fil1" d="M249.085 19.2184c-0.142513,0.716645 -0.390112,1.27374 -0.742077,1.67225 -0.352205,0.398749 -0.831088,0.597404 -1.43761,0.597404 -0.720964,0 -1.29582,-0.313097 -1.72503,-0.938812 -0.428979,-0.625955 -0.643949,-1.55469 -0.643949,-2.78669 0,-1.17801 0.207532,-2.09379 0.622596,-2.74614 0.414584,-0.652346 0.996873,-0.979359 1.74639,-0.979359 0.560936,0 1.01439,0.181381 1.36059,0.541982 0.345967,0.361561 0.590446,0.88387 0.7332,1.56693l-0.635072 0.220728c-0.119961,-0.54894 -0.297263,-0.960165 -0.531906,-1.23535 -0.234643,-0.27375 -0.572212,-0.411225 -1.01271,-0.411225 -0.469286,0 -0.852441,0.257436 -1.1497,0.772787 -0.298222,0.515351 -0.446494,1.2723 -0.446494,2.26966 0,1.01799 0.15403,1.77974 0.463288,2.28453 0.309019,0.505514 0.73224,0.758151 1.27014,0.758151 0.229125,0 0.428979,-0.0463048 0.601003,-0.140594 0.171304,-0.0940492 0.315976,-0.218808 0.433058,-0.375957 0.117561,-0.157868 0.21329,-0.338529 0.287906,-0.543182 0.0741357,-0.203213 0.137235,-0.42634 0.188578,-0.667461l0.617797 0.140354zm-1.89634 2.16913l0 0 -0.403788 0.582529 0.0177542 0.0201534c0.085412,-0.033589 0.171304,-0.0501436 0.257196,-0.0501436 0.234643,0 0.413384,0.0801337 0.536224,0.241361 0.12308,0.160747 0.18426,0.361082 0.18426,0.602203 -0.00551819,0.27423 -0.0981278,0.485121 -0.278549,0.632433 -0.180181,0.147552 -0.433538,0.221447 -0.759351,0.221447 -0.160028,0 -0.3047,-0.0187139 -0.433538,-0.0554218 -0.128598,-0.0371878 -0.252877,-0.0892507 -0.373558,-0.156189l0.146352 -0.441455c0.171304,0.127158 0.360362,0.190737 0.565735,0.190737 0.321015,0 0.481042,-0.144433 0.481042,-0.432338 0,-0.106765 -0.0316696,-0.197455 -0.0947689,-0.270151 -0.0628594,-0.0741357 -0.148031,-0.110844 -0.257196,-0.110844 -0.148751,0 -0.279988,0.0263913 -0.394671,0.0808535l-0.146112 -0.191217 0.540783 -0.863957 0.412185 0z"/>
     <path id="_536914248" class="fil1" d="M249.625 21.3875l1.90522 -7.24994 1.02159 0 1.90546 7.24994 -0.720964 0 -0.583729 -2.26942 -2.22287 0 -0.583729 2.26942 -0.720964 0zm3.88793 -8.88621l0 0c-0.0227925,0.267512 -0.113003,0.512952 -0.270631,0.737278 -0.156909,0.224806 -0.344527,0.33685 -0.561896,0.33685 -0.0918899,0 -0.185699,-0.015115 -0.283347,-0.0455851 -0.0969282,-0.0302301 -0.220488,-0.0753353 -0.368999,-0.135316l-0.0172743 -0.0103166c-0.279988,-0.127158 -0.494718,-0.190737 -0.643469,-0.190737 -0.0858918,0 -0.166026,0.0508633 -0.240401,0.150671 -0.0741357,0.100527 -0.114682,0.207532 -0.120201,0.321974l-0.428979 0c0.0285506,-0.321974 0.1214,-0.584688 0.279029,-0.788861 0.157388,-0.203933 0.370199,-0.3059 0.63939,-0.3059 0.165786,0 0.374277,0.0604602 0.626195,0.180661 0.251917,0.127158 0.438096,0.190737 0.558057,0.190737 0.108684,0 0.198415,-0.0405467 0.270631,-0.120201 0.0710167,-0.0808535 0.115402,-0.187139 0.132916,-0.321255l0.428979 0zm-2.41169 5.93373l0 0 1.8793 0 -0.892267 -3.73462 -0.0942891 0 -0.892747 3.73462z"/>
     <path id="_536913792" class="fil1" d="M255.736 15.0013c0.422981,-0.642989 1.01823,-0.964244 1.78525,-0.964244 0.766309,0 1.36179,0.321255 1.78501,0.964244 0.423461,0.642509 0.635072,1.56309 0.635072,2.76125 0,1.19841 -0.211611,2.11923 -0.635072,2.76173 -0.423221,0.642509 -1.01871,0.963764 -1.78501,0.963764 -0.767029,0 -1.36227,-0.321255 -1.78525,-0.963764 -0.423221,-0.642509 -0.635312,-1.56333 -0.635312,-2.76173 0,-1.19817 0.21209,-2.11875 0.635312,-2.76125zm0.502155 5.04123l0 0c0.300142,0.508393 0.727921,0.76271 1.2831,0.76271 0.554938,0 0.982718,-0.254317 1.28286,-0.76271 0.300142,-0.508633 0.450332,-1.2687 0.450332,-2.27997 0,-1.01103 -0.150191,-1.77038 -0.450332,-2.27877 -0.300142,-0.509593 -0.727921,-0.76367 -1.28286,-0.76367 -0.555178,0 -0.982958,0.254077 -1.2831,0.76367 -0.300142,0.508393 -0.450332,1.26774 -0.450332,2.27877 0,1.01127 0.150191,1.77134 0.450332,2.27997z"/>
     <path id="_536915520" class="fil1" d="M266.85 15.9855c-0.0803737,-0.368279 -0.24448,-0.67154 -0.493278,-0.908342 -0.249038,-0.238002 -0.565015,-0.357003 -0.948169,-0.357003 -0.360602,0 -0.642509,0.0969282 -0.845483,0.291025 -0.203453,0.194336 -0.307579,0.472645 -0.313577,0.833247 0,0.174423 0.0391072,0.328212 0.116122,0.462089 0.0770148,0.134116 0.184739,0.250718 0.321974,0.351485 0.137235,0.100287 0.281428,0.189538 0.433058,0.266313 0.15163,0.0767748 0.358922,0.172743 0.622836,0.285986 0.314057,0.141074 0.575811,0.264633 0.785023,0.372118 0.208492,0.106285 0.405947,0.240161 0.591646,0.400909 0.186179,0.160507 0.33493,0.354844 0.446494,0.582289 0.111563,0.227685 0.167465,0.492319 0.167465,0.7939 0,0.280948 -0.0357483,0.546541 -0.107245,0.798458 -0.0717365,0.250718 -0.188818,0.476244 -0.351725,0.677298 -0.163386,0.201054 -0.379076,0.360362 -0.647788,0.477204 -0.269672,0.116602 -0.595485,0.175622 -0.978879,0.175622 -0.320295,0 -0.603402,-0.0554218 -0.849322,-0.165066 -0.246399,-0.111084 -0.453691,-0.256716 -0.622356,-0.436897 -0.168665,-0.181381 -0.310458,-0.376677 -0.425141,-0.588287 -0.114442,-0.210171 -0.220248,-0.442415 -0.317656,-0.697931l0.626914 -0.260555c0.142753,0.435217 0.344527,0.787902 0.604842,1.05901 0.260315,0.271591 0.599563,0.406907 1.01751,0.406907 0.440496,0 0.777585,-0.120201 1.01223,-0.361801 0.235123,-0.240401 0.351965,-0.555178 0.351965,-0.943611 0,-0.207292 -0.0412665,-0.389872 -0.124279,-0.547021 -0.0830128,-0.157148 -0.199135,-0.296543 -0.347646,-0.417223 -0.148751,-0.119961 -0.30614,-0.221927 -0.472165,-0.30614 -0.165786,-0.0832527 -0.386273,-0.18258 -0.660743,-0.295823 -0.303261,-0.134116 -0.553499,-0.253117 -0.751194,-0.357243 -0.197455,-0.102686 -0.381715,-0.228645 -0.553499,-0.375957 -0.171304,-0.147312 -0.310218,-0.327733 -0.416264,-0.542462 -0.105805,-0.21377 -0.158588,-0.464728 -0.158588,-0.752873 0,-0.261274 0.0439056,-0.505754 0.132677,-0.7332 0.0890108,-0.227685 0.215929,-0.42634 0.382435,-0.597404 0.166026,-0.171064 0.363001,-0.302781 0.592126,-0.39659 0.228645,-0.0935693 0.480562,-0.140834 0.755032,-0.140834 0.491839,0 0.91554,0.150911 1.27014,0.451772 0.355084,0.301581 0.612279,0.746635 0.772307,1.33588l-0.617797 0.160747z"/>
     <path id="_536915376" class="fil1" d="M269.322 15.0013c0.423701,-0.642989 1.01823,-0.964244 1.78525,-0.964244 0.766789,0 1.36155,0.321255 1.78525,0.964244 0.423701,0.642509 0.634832,1.56309 0.634832,2.76125 0,1.19841 -0.211131,2.11923 -0.634832,2.76173 -0.423701,0.642509 -1.01847,0.963764 -1.78525,0.963764 -0.767029,0 -1.36155,-0.321255 -1.78525,-0.963764 -0.423221,-0.642509 -0.635072,-1.56333 -0.635072,-2.76173 0,-1.19817 0.211851,-2.11875 0.635072,-2.76125zm0.502395 5.04123l0 0c0.300621,0.508393 0.728161,0.76271 1.28286,0.76271 0.554938,0 0.983198,-0.254317 1.28334,-0.76271 0.300382,-0.508633 0.450572,-1.2687 0.450572,-2.27997 0,-1.01103 -0.150191,-1.77038 -0.450572,-2.27877 -0.300142,-0.509593 -0.728401,-0.76367 -1.28334,-0.76367 -0.554698,0 -0.982238,0.254077 -1.28286,0.76367 -0.300382,0.508393 -0.450572,1.26774 -0.450572,2.27877 0,1.01127 0.150191,1.77134 0.450572,2.27997z"/>
     <path id="_536915640" class="fil1" d="M274.901 14.1376l2.28285 0c0.526387,0 0.94673,0.171064 1.26151,0.511992 0.315017,0.341888 0.471925,0.767268 0.471925,1.27566 0,0.407866 -0.0827729,0.751194 -0.248798,1.0295 -0.166026,0.277349 -0.431618,0.490159 -0.797978,0.636751l0.00887709 0.0208732c0.354364,0.100527 0.64179,0.317896 0.862037,0.652826 0.220248,0.333971 0.330612,0.725762 0.330612,1.17418 0,0.281908 -0.0400669,0.539583 -0.120201,0.773027 -0.0798938,0.234643 -0.208971,0.440736 -0.386273,0.618037 -0.177542,0.176822 -0.410745,0.314297 -0.699131,0.411465 -0.289345,0.0971681 -0.636991,0.145632 -1.04294,0.145632l-1.92249 0 0 -7.24994zm0.686415 3.11298l0 0 1.20153 0c0.486321,0 0.848362,-0.119961 1.08588,-0.361561 0.237522,-0.240881 0.356043,-0.531666 0.356043,-0.873554 0,-0.796299 -0.389152,-1.19505 -1.16746,-1.19505l-1.476 0 0 2.43016zm0 3.45415l0 0 1.28742 0c1.00743,0 1.51054,-0.434498 1.51054,-1.30469 0,-0.462328 -0.145632,-0.82221 -0.437856,-1.08037 -0.291504,-0.257196 -0.683536,-0.386033 -1.17537,-0.386033l-1.18473 0 0 2.77109z"/>
     <path id="_536915544" class="fil1" d="M280.557 21.3875l0 -7.24994 1.99111 0c0.663622,0 1.17418,0.165786 1.5319,0.496877 0.357483,0.331571 0.536224,0.802057 0.536224,1.41098 0,0.48872 -0.108684,0.888669 -0.325813,1.20057 -0.217369,0.310938 -0.521109,0.540303 -0.909782,0.687615l1.31309 3.45391 -0.746635 0 -1.25335 -3.2934 -1.45032 0 0 3.2934 -0.686415 0zm0.686415 -3.97622l0 0 1.24447 0c0.481042,0 0.840924,-0.108684 1.08133,-0.326533 0.240641,-0.217849 0.360602,-0.550619 0.360602,-0.999032 0,-0.462089 -0.12332,-0.787902 -0.368999,-0.978639 -0.246399,-0.190737 -0.607001,-0.286706 -1.08133,-0.286706l-1.23607 0 0 2.59091z"/>
     <polygon id="_536915616" class="fil1" points="290.066,14.1376 290.066,14.8204 287.036,14.8204 287.036,17.2506 289.191,17.2506 289.191,17.9336 287.036,17.9336 287.036,20.7047 290.238,20.7047 290.238,21.3875 286.35,21.3875 286.35,14.1376 "/>
     <path id="_536915352" class="fil1" d="M293.49 21.3875l1.90522 -7.24994 1.02135 0 1.90546 7.24994 -0.720724 0 -0.583969 -2.26942 -2.22263 0 -0.583729 2.26942 -0.720964 0zm1.47648 -2.95247l0 0 1.87954 0 -0.892747 -3.73462 -0.0942891 0 -0.892507 3.73462z"/>
    </g>
   </g>
   <polygon id="_536914512" class="fil2" points="74.6762,16.4128 74.6762,16.4128 79.0999,16.4128 79.0999,35.3829 74.6762,35.3829 "/>
   <path id="_536915184" class="fil3" d="M106.684 7.8843l8.44835 0c0.743516,0 1.56741,0.0738958 2.47071,0.219288 0.903064,0.146112 1.75406,0.452252 2.55108,0.9165 0.797019,0.465207 1.46064,1.12283 1.99207,1.97287 0.531426,0.850761 0.797019,1.96688 0.797019,3.34762 0,1.11611 -0.165786,2.04653 -0.497597,2.78909 -0.333011,0.744716 -0.73104,1.34932 -1.19601,1.81429 -0.464728,0.464728 -0.963044,0.830128 -1.49399,1.09548 -0.531906,0.265593 -0.996633,0.478163 -1.39514,0.637471l0 0.0801337c0.583729,0.079414 1.22168,0.2452 1.91313,0.498077 0.690254,0.252397 1.33492,0.637711 1.93233,1.1557 0.598124,0.51847 1.09644,1.20872 1.49495,2.07196 0.398509,0.863957 0.597644,1.95968 0.597644,3.28812 0,1.7008 -0.292464,3.04892 -0.876673,4.04507 -0.584928,0.996393 -1.32197,1.76054 -2.21183,2.29197 -0.890588,0.531186 -1.88002,0.875953 -2.96903,1.03574 -1.08996,0.159068 -2.12642,0.239202 -3.10866,0.239202l-8.44835 0 0 -27.4986zm4.66263 11.278l0 0 1.87307 0c0.717125,0 1.37475,-0.0453451 1.97239,-0.139154 0.598124,-0.0928496 1.12259,-0.278549 1.57436,-0.558057 0.451292,-0.278549 0.803497,-0.683296 1.05589,-1.21472 0.252157,-0.531426 0.379316,-1.23559 0.379316,-2.11275 0,-0.850041 -0.120201,-1.5343 -0.359162,-2.05229 -0.239442,-0.51871 -0.57821,-0.9165 -1.01631,-1.19505 -0.438096,-0.279508 -0.963524,-0.465207 -1.57388,-0.558057 -0.61132,-0.0928496 -1.28934,-0.140354 -2.03261,-0.140354l-1.87307 0 0 7.97043zm0 12.9128l0 0 1.87307 0c0.743276,0 1.49423,-0.0532625 2.2519,-0.160028 0.756952,-0.105565 1.44049,-0.324853 2.05181,-0.656665 0.61132,-0.332051 1.10244,-0.803497 1.47456,-1.4153 0.372118,-0.6106 0.558537,-1.43521 0.558537,-2.47119 0,-1.80589 -0.571733,-3.07459 -1.714,-3.80563 -1.14275,-0.730321 -2.684,-1.0962 -4.6228,-1.0962l-1.87307 0 0 9.60501z"/>
   <path id="_536914992" class="fil4" d="M127.72 16.4128l4.42391 0 0 3.50717 0.079414 0c0.264873,-0.451292 0.550619,-0.909782 0.856759,-1.37475 0.3047,-0.464488 0.690494,-0.889868 1.1557,-1.27518 0.464728,-0.385314 1.02902,-0.697691 1.69384,-0.936173 0.663143,-0.240161 1.47456,-0.359162 2.43064,-0.359162l0 4.6228c-2.23127,0 -3.82579,0.504555 -4.78187,1.51414 -0.956566,1.01031 -1.43449,2.65713 -1.43449,4.94214l0 8.32911 -4.42391 0 0 -18.9701z"/>
   <path id="_536914608" class="fil5" d="M68.5791 12.5076c-0.930175,-0.372598 -1.95944,-0.757672 -3.08827,-1.1557 -1.12979,-0.398989 -2.39825,-0.598604 -3.80587,-0.598604 -1.1701,0 -2.15233,0.27375 -2.94983,0.817892 -0.796539,0.544382 -1.19505,1.40138 -1.19505,2.5698 0,0.82389 0.325093,1.54197 0.97624,2.15233 0.650907,0.61132 1.46136,1.20273 2.43112,1.77374 0.969522,0.571493 2.01894,1.1497 3.14825,1.73343 1.12907,0.584688 2.17849,1.25527 3.14825,2.01222 0.969762,0.757192 1.77974,1.63434 2.43112,2.63026 0.650907,0.997113 0.97624,2.18616 0.97624,3.56715 0,1.27494 -0.245679,2.40473 -0.737038,3.38745 -0.492079,0.982718 -1.18233,1.79965 -2.0722,2.45032 -0.890588,0.652106 -1.95968,1.14275 -3.20847,1.47456 -1.24879,0.332051 -2.61682,0.499036 -4.10433,0.499036 -0.877152,0 -1.73391,-0.0539823 -2.57052,-0.160028 -0.837565,-0.105805 -1.5938,-0.226246 -2.27158,-0.358682 -0.678018,-0.132197 -1.25527,-0.258635 -1.73391,-0.378116 -0.478403,-0.119481 -0.82413,-0.205613 -1.03646,-0.259355l0 -4.82218c0.399229,0.238962 0.870195,0.51847 1.4153,0.837325 0.544382,0.318136 1.14179,0.61108 1.79269,0.876193 0.650907,0.266073 1.35556,0.491839 2.11251,0.677538 0.756952,0.186659 1.57436,0.279029 2.45104,0.279029 0.903064,0 1.66721,-0.112523 2.29173,-0.338289 0.623795,-0.225766 1.12211,-0.524468 1.49447,-0.897306 0.371158,-0.371878 0.637471,-0.783103 0.797019,-1.23512 0.159068,-0.451292 0.238962,-0.902584 0.238962,-1.35508 0,-0.982718 -0.325813,-1.839 -0.97672,-2.57052 -0.650907,-0.730321 -1.46064,-1.4009 -2.43064,-2.01222 -0.970482,-0.61132 -2.01942,-1.20896 -3.14873,-1.79365 -1.12883,-0.583969 -2.17873,-1.23535 -3.14825,-1.95248 -0.969762,-0.717605 -1.78022,-1.54101 -2.43064,-2.47119 -0.651386,-0.929455 -0.97624,-2.04557 -0.97624,-3.34714 0,-1.22192 0.24496,-2.27805 0.736798,-3.16864 0.491359,-0.889868 1.16938,-1.62763 2.03261,-2.21183 0.863237,-0.584208 1.86611,-1.01583 3.00885,-1.29534 1.14227,-0.278549 2.36514,-0.417703 3.66672,-0.417703 1.54053,0 2.922,0.0988476 4.1444,0.298222 1.22168,0.199615 2.0854,0.352684 2.59043,0.45849l0 4.30419z"/>
   <path id="_536914968" class="fil6" d="M84.9182 7.8843l8.44859 0c0.743756,0 1.56741,0.0738958 2.47119,0.219288 0.902584,0.146112 1.75311,0.452252 2.54988,0.9165 0.797259,0.465207 1.4616,1.12283 1.99327,1.97287 0.530946,0.850761 0.796539,1.96688 0.796539,3.34762 0,1.11611 -0.166026,2.04653 -0.498317,2.78909 -0.332771,0.744716 -0.7308,1.34932 -1.19505,1.81429 -0.465207,0.464728 -0.963524,0.830128 -1.49495,1.09548 -0.531666,0.265593 -0.995913,0.478163 -1.3949,0.637471l0 0.0801337c0.584688,0.079414 1.22216,0.2452 1.91361,0.498077 0.690254,0.252397 1.33492,0.637711 1.93233,1.1557 0.598124,0.51847 1.0962,1.20872 1.49495,2.07196 0.398269,0.863957 0.597404,1.95968 0.597404,3.28812 0,1.7008 -0.292944,3.04892 -0.876433,4.04507 -0.584688,0.996393 -1.32221,1.76054 -2.21207,2.29197 -0.890348,0.531186 -1.88002,0.875953 -2.96879,1.03574 -1.08996,0.159068 -2.12594,0.239202 -3.10866,0.239202l-8.44859 0 0 -27.4986zm4.66239 11.278l0 0 1.87307 0c0.717365,0 1.37523,-0.0453451 1.97287,-0.139154 0.597884,-0.0928496 1.12235,-0.278549 1.57388,-0.558057 0.451292,-0.278549 0.803737,-0.683296 1.05613,-1.21472 0.252397,-0.531426 0.378836,-1.23559 0.378836,-2.11275 0,-0.850041 -0.119481,-1.5343 -0.358442,-2.05229 -0.238962,-0.51871 -0.57845,-0.9165 -1.01631,-1.19505 -0.438576,-0.279508 -0.963044,-0.465207 -1.57436,-0.558057 -0.61156,-0.0928496 -1.28886,-0.140354 -2.03261,-0.140354l-1.87307 0 0 7.97043zm0 12.9128l0 0 1.87307 0c0.743756,0 1.49423,-0.0532625 2.2519,-0.160028 0.757432,-0.105565 1.44097,-0.324853 2.05229,-0.656665 0.61084,-0.332051 1.1022,-0.803497 1.47456,-1.4153 0.371878,-0.6106 0.558057,-1.43521 0.558057,-2.47119 0,-1.80589 -0.571972,-3.07459 -1.71352,-3.80563 -1.14275,-0.730321 -2.684,-1.0962 -4.62328,-1.0962l-1.87307 0 0 9.60501z"/>
   <circle id="_536914872" class="fil7" cx="76.9909" cy="11.2607" r="3.06492"/>
   <line id="_536915040" class="fil8 str0" x1="146.957" y1="6.13407" x2="146.957" y2= "39.1794" />
   <g>
    <g>
     <path id="_536914560" class="fil9" d="M39.7353 15.8259c-7.53833,4.38672 -14.3291,6.77082 -15.1695,5.32697 -0.839965,-1.44409 4.58826,-6.17006 12.1266,-10.5568 7.53689,-4.38576 12.1909,-3.59402 12.1909,-3.59402 0,0 -1.61107,4.43807 -9.14796,8.82383z"/>
     <path id="_536915232" class="fil10" d="M36.8788 31.4918c-7.6151,-4.25189 -13.1273,-8.88021 -12.3125,-10.3389 0.814053,-1.45872 7.64653,0.803976 15.2621,5.05586 7.61366,4.25045 9.30415,8.65876 9.30415,8.65876 0,0 -4.64008,0.874993 -12.2537,-3.37569z"/>
     <path id="_539432480" class="fil11" d="M12.253 10.814c7.61534,4.25189 13.1273,8.88021 12.3128,10.3389 -0.814293,1.4592 -7.64701,-0.803976 -15.2619,-5.05586 -7.6139,-4.24997 -9.30367,-8.659 -9.30367,-8.659 0,0 4.63888,-0.874513 12.2528,3.37593z"/>
     <path id="_539432600" class="fil12" d="M26.2083 30.9367c-3.04436,-4.5849 -4.34618,-9.08054 -2.87354,-10.0652 1.47264,-0.985837 2.64249,1.89418 6.4702,5.84784 7.09927,7.33344 5.36656,12.7691 5.36656,12.7691 0,0 -4.86081,-2.37594 -8.96322,-8.55176z"/>
     <path id="_539432912" class="fil13" d="M9.39676 26.4804c7.53785,-4.38624 14.3291,-6.77154 15.169,-5.32745 0.841164,1.44385 -4.58754,6.1703 -12.1261,10.5573 -7.53641,4.38576 -12.1906,3.59402 -12.1906,3.59402 0,0 1.61035,-4.43759 9.14772,-8.82383z"/>
     <path id="_539432456" class="fil14" d="M20.0003 7.76793c2.66145,4.81594 5.37592,12.4121 3.82866,13.2744 -1.54797,0.862277 -4.06907,-4.44454 -7.56256,-8.69643 -6.4786,-7.88669 -3.89776,-11.772 -3.89776,-11.772 0,0 4.04555,0.704169 7.63166,7.19404z"/>
     <path id="_539432528" class="fil15" d="M10.6619 16.8564c5.48412,0.460409 13.3089,2.41985 13.1666,4.18591 -0.142273,1.76582 -5.95557,0.9165 -11.4313,1.4616 -10.1561,1.01055 -11.9548,-3.29364 -11.9548,-3.29364 0,0 2.83131,-2.97406 10.2194,-2.35387z"/>
     <path id="_539432504" class="fil16" d="M15.8279 28.1663c2.59715,-4.85145 5.94237,-8.12662 7.5069,-7.29481 1.56501,0.830368 -0.418423,3.22454 -2.08995,8.46778 -3.0993,9.72401 -8.70819,10.7698 -8.70819,10.7698 0,0 -0.208012,-5.40639 3.29124,-11.9428z"/>
     <path id="_539433032" class="fil17" d="M16.6076 17.3528c4.08106,0.263194 7.3128,1.65378 7.21899,3.10722 -0.0938092,1.45224 -3.47766,2.41745 -7.55824,2.15353 -4.08034,-0.262714 -5.60648,-3.00238 -5.60648,-3.00238 0,0 1.86587,-2.52157 5.94573,-2.25838z"/>
     <path id="_539433008" class="fil18" d="M11.5726 18.0757c5.49084,-0.363961 11.6386,1.02782 11.7621,2.7958 0.1226,1.76726 -2.75358,1.89922 -8.08703,3.25525 -9.89052,2.51653 -12.3123,-1.46976 -12.3123,-1.46976 0,0 1.23847,-4.0909 8.63717,-4.5813z"/>
     <path id="_539433080" class="fil19" d="M19.3077 9.47161c3.28236,4.41695 5.44549,10.338 4.02708,11.3999 -1.41865,1.06165 -3.08851,-1.28454 -7.11967,-5.03019 -7.47643,-6.94836 -5.43902,-11.1439 -5.43902,-11.1439 0,0 4.10865,-1.17633 8.5316,4.77419z"/>
     <path id="_539432648" class="fil18" d="M11.5726 18.0757c5.49084,-0.363961 11.6386,1.02782 11.7621,2.7958 0.1226,1.76726 -2.75358,1.89922 -8.08703,3.25525 -9.89052,2.51653 -12.3123,-1.46976 -12.3123,-1.46976 0,0 1.23847,-4.0909 8.63717,-4.5813z"/>
     <path id="_539434352" class="fil20" d="M18.3065 30.0518c1.05493,-5.40063 3.28812,-9.51432 5.02827,-9.18035 1.74039,0.333731 1.53094,3.30276 0.493758,8.70723 -1.03694,5.40399 -3.83946,8.72714 -3.83946,8.72714 0,0 -3.10386,-0.97696 -1.68257,-8.25401z"/>
     <path id="_539434184" class="fil21" d="M29.049 7.16933c-0.76199,6.33152 -2.82435,14.1837 -4.48269,13.9836 -1.6593,-0.199615 -4.19407,-5.83369 -2.31164,-11.9272 1.79773,-5.81641 4.42631,-9.2257 4.42631,-9.2257 0,0 3.12977,0.838525 2.36802,7.16933z"/>
     <path id="_539434112" class="fil22" d="M30.0602 31.2745c-4.24205,-4.43567 -6.90422,-8.77248 -5.94765,-9.68754 0.957046,-0.91506 5.14967,-1.22072 8.37134,4.00357 3.38241,5.4846 5.92342,9.80846 5.92342,9.80846 0,0 -4.10553,0.311178 -8.3471,-4.12449z"/>
     <path id="_539434064" class="fil23" d="M36.9093 24.1267c-6.81041,0.0287906 -12.3365,-1.30277 -12.343,-2.97383 -0.00719764,-1.67129 5.50691,-3.04796 12.3173,-3.07651 6.80897,-0.0287906 9.65204,2.98462 9.65204,2.98462 0,0 -2.8174,3.03716 -9.62636,3.06571z"/>
     <path id="_539434016" class="fil24" d="M33.4909 12.1235c-4.33034,5.25644 -7.49082,9.88716 -8.92459,9.02944 -1.43449,-0.857239 0.236802,-6.2905 3.73198,-12.135 3.49493,-5.84352 8.78976,-7.84519 8.78976,-7.84519 0,0 1.31933,4.98341 -3.59714,10.9507z"/>
     <path id="_539434208" class="fil25" d="M16.3715 21.0497c4.05611,-1.24495 7.76529,-0.881471 8.2852,0.812374 0.51991,1.6936 -2.34571,4.07602 -6.40206,5.32146 -4.05539,1.24543 -6.68205,0.342608 -6.68205,0.342608 0,0 0.743756,-5.23148 4.79891,-6.47644z"/>
     <path id="_539434328" class="fil26" d="M24.6512 12.6067c1.26247,3.88936 0.919619,7.48603 -0.766309,8.03257 -1.68497,0.547261 -4.07458,-2.16193 -5.33657,-6.05226 -1.26199,-3.88865 1.26535,-6.49563 1.26535,-6.49563 0,0 3.57531,0.626675 4.83753,4.51532z"/>
     <path id="_539433824" class="fil27" d="M31.8855 25.4482c-3.94983,-1.05973 -7.32,-1.8174 -7.22883,-3.5861 0.09141,-1.77014 3.4755,-3.03333 7.55944,-2.82195 4.0837,0.210411 6.85071,4.55923 6.85071,4.55923 0,0 -2.05205,3.22454 -7.18133,1.84883z"/>
    </g>
    <g>
     <path id="_539433248" class="fil28" d="M16.6076 17.3528c4.08106,0.263194 7.3128,1.65378 7.21899,3.10722 -0.0938092,1.45224 -3.47766,2.41745 -7.55824,2.15353 -4.08034,-0.262714 -5.60648,-3.00238 -5.60648,-3.00238 0,0 1.86587,-2.52157 5.94573,-2.25838z"/>
     <path id="_539433704" class="fil29" d="M26.0029 13.0855c0.211371,4.08394 -1.05158,7.46875 -2.82076,7.56016 -1.7699,0.0918899 -3.37521,-3.14417 -3.58706,-7.22811 -0.211611,-4.08322 2.90449,-5.94597 2.90449,-5.94597 0,0 3.29148,1.53094 3.50333,5.61392z"/>
     <path id="_539433800" class="fil30" d="M20.3676 13.0836c2.83227,2.94911 4.09258,6.33488 2.81452,7.56208 -1.27806,1.2272 -4.60985,-0.168425 -7.4426,-3.11754 -2.83179,-2.94911 -1.69528,-6.39726 -1.69528,-6.39726 0,0 3.49134,-0.996393 6.32337,1.95272z"/>
     <path id="_539433512" class="fil31" d="M31.2469 20.3892c-3.69863,1.74423 -7.3092,1.85891 -8.0652,0.256476 -0.755752,-1.60243 1.63027,-4.31571 5.32841,-6.05969 3.69791,-1.74447 6.6036,0.432818 6.6036,0.432818 0,0 -0.168425,3.62617 -3.86681,5.3704z"/>
     <path id="_539433440" class="fil32" d="M21.8779 29.4374c-0.234163,-4.0825 1.00983,-7.47379 2.77877,-7.57528 1.76942,-0.101727 3.39273,3.12474 3.62713,7.20796 0.234163,4.08202 -2.87162,5.96253 -2.87162,5.96253 0,0 -3.30036,-1.51318 -3.53428,-5.59521z"/>
     <path id="_539433680" class="fil33" d="M27.5137 29.4086c-2.84955,-2.93376 -4.12809,-6.31209 -2.85698,-7.54649 1.27158,-1.23464 4.61105,0.142513 7.45939,3.07651 2.84835,2.93352 1.73079,6.38719 1.73079,6.38719 0,0 -3.48534,1.01583 -6.3332,-1.91721z"/>
     <path id="_539433464" class="fil34" d="M16.2859 22.2933c3.57123,-1.99303 7.16549,-2.35363 8.02873,-0.806376 0.863477,1.54773 -1.33108,4.41695 -4.90231,6.40878 -3.57051,1.99231 -6.61751,0.0189538 -6.61751,0.0189538 0,0 -0.079174,-3.62953 3.4911,-5.62136z"/>
     <path id="_539433416" class="fil35" d="M32.0885 25.0058c-4.08946,0.0355084 -7.41645,-1.37187 -7.4318,-3.14369 -0.015355,-1.77206 3.28644,-3.23678 7.37542,-3.27229 4.08898,-0.0355084 5.81641,3.1576 5.81641,3.1576 0,0 -1.67201,3.22262 -5.76003,3.25837z"/>
    </g>
    <g>
     <path id="_549751088" class="fil36" d="M26.2025 17.7959c0.643469,0.704169 0.969282,2.56428 -0.380755,3.71158 -1.35076,1.14658 -1.23464,-0.0292704 -2.78333,-0.589727 -1.69984,-0.614199 -0.513672,-2.32364 -0.513672,-2.32364 0,0 2.63674,-1.93712 3.67775,-0.798218z"/>
     <path id="_545376160" class="fil37" d="M26.2049 24.9602c-0.284547,-0.288865 -2.4424,-1.56933 -1.54821,-3.0981 0.894667,-1.5295 2.07316,-2.12282 3.93975,-1.2879 1.04654,0.468087 0.76295,4.386 0.76295,4.386 0,0 -1.24927,1.93689 -3.15449,0z"/>
     <path id="_545376040" class="fil38" d="M20.8403 23.7455c-0.125719,-0.385314 1.30925,-2.60699 3.07771,-2.4899 1.76726,0.117561 1.33372,2.13338 1.42009,4.17679 0.0484641,1.14466 -1.99998,1.208 -1.99998,1.208 0,0 -1.32844,0.678977 -2.49782,-2.89489z"/>
     <path id="_545375992" class="fil39" d="M19.4197 18.7765c1.17969,-0.413864 3.50405,-0.15403 4.04435,1.53334 0.540303,1.68761 -0.743516,1.20656 -2.27949,2.5566 -1.68593,1.48199 -2.96591,-0.219768 -2.96591,-0.219768 0,0 -0.707288,-3.20055 1.20105,-3.87017z"/>
     <path id="_545376136" class="fil40" d="M24.3669 15.1645c0.642989,0.704409 0.968802,2.56404 -0.381235,3.71134 -1.35052,1.14706 -1.23464,-0.0287906 -2.78333,-0.589247 -1.70032,-0.614678 -0.513672,-2.32388 -0.513672,-2.32388 0,0 2.63674,-1.93689 3.67823,-0.798218z"/>
     <path id="_545375944" class="fil41" d="M29.4393 18.8377c-0.628114,0.718085 -2.44072,1.24855 -3.73126,0.0345487 -1.28982,-1.21424 -0.412905,-0.780224 -0.0285506,-2.38218 0.421782,-1.75814 4.97093,-0.219288 4.97093,-0.219288 0,0 -0.195056,1.40594 -1.21112,2.56692z"/>
    </g>
   </g>
  </g>
 </g>
</svg>
